<?xml version="1.0" encoding="utf-8"?>
<!-- Generator: Adobe Illustrator 24.2.3, SVG Export Plug-In . SVG Version: 6.00 Build 0)  -->
<svg version="1.1" id="Layer_1" xmlns="http://www.w3.org/2000/svg" xmlns:xlink="http://www.w3.org/1999/xlink" x="0px" y="0px"
	 viewBox="0 0 1000 1000" enable-background="new 0 0 1000 1000" xml:space="preserve">
<g>
	<g>
		<g>
			<path fill="#808184" d="M251.898,500.789c-10.9-39.966-4.152-68.514,10.381-89.794l-25.952-26.991H95.147l-24.914,25.952
				c22.319,46.195,6.229,75.78,5.71,89.275l0,0c-15.571-15.053-24.395-6.229-25.952,0l0,0
				c-5.709,18.685-10.381,25.432-10.381,25.432c3.114,7.786,6.747,8.825,8.305,8.825l0,0c0.52,35.814,32.181,54.499,67.475,66.437
				c35.814,12.457,47.233,27.509,47.233,27.509s21.281-21.28,57.613-30.623c36.852-13.495,59.171-38.929,57.095-63.322l0,0
				c7.267,0,8.305-2.077,10.381-9.343c0,0-5.19-3.635-9.862-21.281l0,0c0-2.595-1.038-5.71-3.114-9.343
				C264.874,483.141,252.417,499.75,251.898,500.789L251.898,500.789z"/>
			<path fill="#50B748" d="M58.814,508.574c0.519-0.52,5.19-8.305,5.709-1.558c0.519,6.229-10.9,1.558-11.938-6.747
				c-0.519-4.671,18.686-14.533,21.281,14.014l0,0c1.557,39.446,45.157,50.866,63.842,58.651
				c22.319,12.457,24.396,17.128,24.396,17.128s9.862-10.38,24.914-16.09c37.89-13.495,66.438-26.471,65.918-60.728
				c1.557-23.876,28.547-24.914,17.128-5.71c-3.114,5.71-16.609,7.267-6.229-3.633l3.633,6.747c0.519,0,1.557-0.519,2.076-1.557
				c0,0-4.152-9.861-4.671-9.861c-3.633,1.038-6.747,5.709-6.228,10.381c0.519,9.343,16.609,23.357,15.571,31.142
				c-6.748,38.929-64.361,56.057-64.361,56.057c-26.471,7.267-46.714,26.471-46.714,26.471
				c-11.938-16.608-55.018-29.065-55.018-29.065c-53.461-21.801-57.095-50.348-56.057-59.172
				c0.519-6.747,12.976-17.646,12.976-17.646c3.114-3.634,4.152-15.053-2.595-17.647c-0.52,0-5.191,7.785-5.191,7.785
				C57.777,507.535,58.814,508.574,58.814,508.574z"/>
			<path fill="#0054A5" d="M79.576,516.359c1.557,29.585,29.585,39.447,57.095,48.79c17.128,6.228,25.952,16.09,25.952,16.09
				c11.938-9.862,17.647-12.457,27.509-15.571c30.104-10.381,63.323-21.281,56.056-63.842c-15.571-63.842,9.862-89.275,9.862-89.275
				l-23.357-23.357H96.705l-20.242,22.319c18.685,39.447,8.304,71.627,5.709,87.718c-3.114,14.014-2.076,7.266-2.595,18.685V516.359
				z"/>
			<polygon fill="#FFFFFF" points="163.661,402.17 164.699,399.056 161.585,397.499 165.218,397.499 166.256,394.385 
				167.294,397.499 170.408,397.499 167.813,399.056 168.852,402.17 166.256,400.613 			"/>
			<path fill="#FFFFFF" d="M164.18,437.465c21.8,0,39.447,17.647,39.447,38.928c0,21.28-17.647,38.409-39.447,38.409
				c-21.8,0-39.447-17.129-39.447-38.409C124.733,454.594,142.38,437.465,164.18,437.465z"/>
			<path fill="#231F20" d="M124.733,476.394c0,21.28,17.647,38.409,39.447,38.409c21.8,0,39.447-17.129,39.447-38.409
				c0-21.281-17.647-38.928-39.447-38.928C142.38,437.465,124.733,454.594,124.733,476.394z M125.252,476.394
				c0-21.281,17.647-38.928,38.928-38.928c21.8,0,39.447,17.647,39.447,38.928c0,21.28-17.647,38.409-39.447,38.409
				C142.38,514.803,125.252,497.155,125.252,476.394z"/>
			<path fill="#8DD7F7" d="M163.661,439.542c20.762,0,36.852,16.09,36.852,36.333c0,20.243-16.609,36.332-36.852,36.332
				c-20.242,0-36.852-16.09-36.852-36.332C126.809,455.631,143.419,439.542,163.661,439.542z"/>
			<path fill="#0094D9" d="M125.771,476.394c0,20.761,17.129,37.37,37.89,37.37c21.281,0,37.89-16.609,37.89-37.37
				c0-20.762-16.609-37.371-37.89-37.371C142.899,438.503,125.771,455.631,125.771,476.394z M127.847,476.394
				c0-19.724,16.09-35.295,35.813-35.295c20.243,0,35.814,15.571,35.814,35.295c0,19.724-15.571,35.294-35.814,35.294
				C143.938,511.688,127.847,495.598,127.847,476.394z"/>
			<path fill="#0094D9" d="M153.28,510.131c-0.519,0-0.519,0.519-0.519,1.037c0.519,0.52,1.038,0.52,1.557,0.52
				c9.343-5.19,10.9-4.671,20.243,0c0.519,0.519,1.038,0,1.557-0.52c0-0.519,0-1.037-0.52-1.556
				C165.737,504.94,163.142,503.902,153.28,510.131z"/>
			<path fill="#0094D9" d="M126.809,475.355c-0.519,0-1.039,0.519-1.039,1.038c0,0.519,0.52,1.039,1.039,1.039h74.223
				c0.519,0,1.039-0.52,1.039-1.039c0-0.519-0.52-1.038-1.039-1.038H126.809z"/>
			<path fill="#0094D9" d="M175.599,441.099c-8.304,5.71-12.976,6.228-21.8,0c-0.519-0.519-1.038,0-1.557,0
				c-0.52,0.519,0,1.038,0,1.557c9.862,7.267,15.571,5.709,23.876,0c0.519-0.519,0.519-1.039,0.519-1.557
				C176.637,440.58,175.599,440.58,175.599,441.099z"/>
			<path fill="#0094D9" d="M141.861,445.77c-0.519,0.519,0,1.038,0.519,1.557c15.572,9.862,27.51,12.976,44.119,0.519
				c0.519-0.519,0.519-1.038,0-1.558c-0.518-0.519-1.038-0.519-1.557,0c-16.09,11.939-26.99,9.343-42.042-0.519
				C142.899,445.251,142.38,445.251,141.861,445.77z"/>
			<path fill="#0094D9" d="M134.595,451.999c-0.519,0.519,0,1.038,0,1.557c26.471,18.686,42.042,9.863,53.98,3.115l3.633-2.076
				c0.52-0.519,0.52-1.039,0.52-1.557c-0.52-0.519-1.038-0.519-1.558-0.519l-3.633,2.076c-12.457,7.267-25.952,15.052-51.904-2.595
				C135.633,450.96,135.113,451.479,134.595,451.999z"/>
			<path fill="#0094D9" d="M130.442,489.37c-0.519,0.519-0.519,1.038-0.519,1.557c0.519,0.519,1.038,0.519,1.557,0.519
				c5.709-3.115,34.775-17.648,66.438,0c0.518,0.519,1.038,0,1.557-0.519c0.52-0.519,0-1.038-0.519-1.557
				C166.256,471.203,136.152,486.255,130.442,489.37z"/>
			<path fill="#0094D9" d="M135.113,499.231c-0.519,0-0.519,1.038-0.519,1.557c0,0.518,1.038,0.518,1.557,0.518
				c28.028-12.976,30.104-11.937,53.98-1.556l1.557,0.519c0.519,0,1.038,0,1.558-0.519c0-0.519,0-1.038-0.519-1.558l-1.558-0.519
				C166.775,486.774,164.18,485.736,135.113,499.231z"/>
			<path fill="#0094D9" d="M174.561,443.694c9.861,5.71,20.243,19.205,20.243,34.256c0,12.458-7.267,23.356-21.8,31.662l1.039,1.556
				c18.685-10.898,22.837-23.875,22.837-33.218c0-15.571-10.899-30.104-21.281-36.333L174.561,443.694z"/>
			<path fill="#0094D9" d="M170.927,445.251c8.824,8.304,14.014,19.204,14.014,30.624c0,11.938-5.19,23.357-14.014,32.18
				l1.557,1.558c9.343-9.343,15.052-21.281,14.533-33.738c0-11.939-5.19-23.357-14.533-32.181L170.927,445.251z"/>
			<path fill="#0094D9" d="M168.332,445.77c12.458,18.685,9.862,48.79-0.519,61.247l1.558,1.558
				c11.419-12.976,14.014-43.6,1.038-63.842L168.332,445.77z"/>
			<path fill="#0094D9" d="M160.028,508.055l1.557-1.038c-5.71-8.824-18.167-32.7-1.557-61.247l-1.558-1.038
				C141.342,474.836,153.799,499.231,160.028,508.055z"/>
			<path fill="#0094D9" d="M156.914,509.612l1.557-1.558c-19.204-20.243-19.204-43.081-0.519-62.804l-1.558-1.557
				C136.671,464.455,137.19,488.331,156.914,509.612z"/>
			<path fill="#0094D9" d="M132.519,476.394c-0.519,9.862,3.114,23.357,21.799,34.774l1.038-1.556
				c-14.014-8.306-21.281-19.724-20.762-32.7c0.519-15.571,12.457-29.066,20.243-33.219l-1.039-2.077
				C144.456,446.289,133.037,460.822,132.519,476.394z"/>
			<path fill="#E6E7E8" d="M164.18,497.155v9.862V497.155z"/>
			<rect x="163.142" y="497.155" fill="#0094D9" width="1.558" height="9.862"/>
			<path fill="#0094D9" d="M163.142,472.761v31.142c0,0.52,0.519,1.038,1.039,1.038c0.519,0,1.038-0.518,1.038-1.038v-31.142
				c0-0.52-0.519-1.039-1.038-1.039C163.661,471.722,163.142,472.241,163.142,472.761z"/>
			<path fill="#FFFFFF" d="M202.07,488.85c32.699,18.685,26.471,28.547-41.523-12.457c-31.143-18.686-84.084-53.98-25.434-25.434
				l1.039-1.557c-66.438-30.104-6.748,9.862,22.318,28.029c73.704,45.674,80.452,30.103,44.119,9.342L202.07,488.85z"/>
			<path fill="#FFFFFF" d="M194.284,450.96c38.41-22.318,40.485-9.343-29.585,28.547c-32.181,17.128-91.351,45.675-36.852,10.381
				l-1.038-2.077c-59.171,41.523,7.786,9.343,37.89-6.747c76.818-40.485,68.513-55.538,28.028-31.662L194.284,450.96z"/>
			<g>
				<polygon fill="#231F20" points="145.495,470.165 142.899,470.165 131.999,491.446 131.999,491.446 150.166,491.446 
					160.547,491.446 161.065,491.964 160.547,492.483 161.065,492.483 166.775,492.483 167.294,492.483 166.775,491.446 
					184.941,491.446 196.36,491.446 196.36,491.446 196.36,490.927 184.941,470.165 176.637,470.165 				"/>
				<path fill="#231F20" d="M176.637,469.646h-33.738h-0.52l-10.899,21.281v0.519l0.519,0.519h29.066v0.519l0.52,0.519h6.228
					l0.519-0.519v-0.519l0,0c1.039,0,28.547,0,28.547,0l0.52-0.519v-0.519l-0.52-0.519l-10.899-20.762h-0.519H176.637
					L176.637,469.646z M145.495,470.684c0,0,38.928,0,39.447,0c0,0.519,10.9,20.762,10.9,20.762l0,0l0,0h-10.9h-18.166v0.519v0.519
					l0,0h-5.71v-0.519l-0.519-0.519h-10.381c0,0-17.647,0-18.167,0l0,0c0,0,10.9-20.243,10.9-20.762
					C143.419,470.684,145.495,470.684,145.495,470.684z"/>
				<polygon fill="#231F20" points="131.999,491.446 131.999,491.964 131.999,491.964 131.999,492.483 160.547,492.483 
					161.065,492.483 160.547,492.483 160.028,492.483 160.028,492.483 160.028,493.002 160.547,493.002 161.065,493.522 
					166.775,493.522 166.775,493.522 167.294,493.002 167.813,493.002 167.813,493.002 167.813,492.483 167.294,492.483 
					167.294,492.483 167.294,492.483 196.36,492.483 196.36,491.964 196.36,491.964 196.36,491.964 196.36,491.446 196.36,491.446 
					196.36,491.446 166.775,491.446 166.775,491.446 166.775,491.964 166.775,491.964 166.775,492.483 166.775,492.483 
					166.775,492.483 161.585,492.483 161.585,492.483 161.065,492.483 161.585,491.964 161.585,491.964 161.585,491.446 
					161.065,491.446 161.065,491.446 132.519,491.446 131.999,491.446 131.999,491.446 				"/>
				<path fill="#231F20" d="M195.841,491.446h-29.585l-0.519,0.519v0.519c-0.519,0-4.152,0-4.671,0v-0.519l-0.519-0.519h-28.547l0,0
					l0,0h-0.519v0.519l0.519,0.519c0,0,26.99,0,28.028,0l0,0v0.519l0.519,0.519h0.519l0.52,0.519h6.228l0.519-0.519h0.52v-0.519l0,0
					c1.038,0,28.028,0,28.028,0l0.52-0.519l0,0l0,0l0.519-0.519v-0.519H195.841L195.841,491.446z M131.999,491.964
					C132.519,491.964,132.519,491.964,131.999,491.964c0.519,0,29.066,0,29.066,0l0,0h-0.519v0.519h5.19l0.519-0.519l0,0
					c0,0,28.548,0,29.067,0l0,0l0,0c-0.519,0-28.547,0-28.547,0l-0.52,0.519v0.519l0,0l-0.519,0.519h-5.709l0,0l0.519-0.519v-0.519
					L131.999,491.964L131.999,491.964z"/>
				<polygon fill="#FFFFFF" points="146.014,469.126 143.938,470.165 134.076,490.408 138.747,490.408 142.899,489.889 
					148.09,489.37 153.28,488.331 155.876,487.812 157.952,488.331 160.028,488.85 161.065,489.889 161.585,491.446 
					162.104,491.964 166.256,491.964 166.256,491.964 166.775,490.408 167.294,488.85 168.852,487.812 170.408,487.293 
					172.484,487.293 175.599,487.812 178.713,488.85 184.422,489.889 189.613,490.408 193.765,490.408 183.904,470.684 
					181.827,469.126 164.699,479.507 				"/>
				<path fill="#231F20" d="M143.938,470.165l-9.862,20.243l0.519,0.519h4.671l4.152-0.519l5.19-0.519l5.19-1.039l2.595-0.519
					l1.558,0.519l2.076,0.52l1.038,1.038l0.52,1.557l0.519,0.519h0.519h4.152h0.519l0.519-1.557l0.519-1.557l1.558-1.039
					l1.557-0.519h2.076l2.595,0.519l3.114,1.039l5.709,1.038l5.191,0.519h4.152l0.52-0.519l-9.862-19.724l-2.076-1.558h-0.519
					l-17.128,10.381c-0.519,0-18.167-10.381-18.167-10.381h-0.519L143.938,470.165z M143.938,470.165c0,0,1.557-0.519,2.076-1.038
					c0.519,0,18.166,10.381,18.166,10.381h0.519l17.128-10.381c0.519,0,2.077,1.038,2.077,1.038s8.824,18.166,9.343,19.205
					c-1.039,0-3.634,0-3.634,0l-5.19-0.52l-5.709-0.519l-3.115-1.038l-3.114-0.519h-2.076l-2.076,0.519l-1.557,1.038l-1.039,1.558
					c0,0,0,1.038-0.519,1.557c-0.519,0-3.633,0-3.633,0l-1.038-2.076l-1.038-1.039l-1.557-0.519l-1.558-0.519l-3.114,0.519
					l-5.19,1.038l-5.19,0.52l-4.152,0.519c0,0-3.114,0-4.152,0C135.113,488.85,143.938,470.165,143.938,470.165z"/>
				<rect x="163.661" y="469.126" fill="#231F20" width="0.52" height="20.243"/>
				
					<rect x="134.043" y="488.793" transform="matrix(0.8606 -0.5093 0.5093 0.8606 -230.1028 137.5097)" fill="#231F20" width="4.152" height="0.519"/>
				<polygon fill="#231F20" points="190.132,488.85 193.765,490.408 193.765,489.889 190.651,488.331 				"/>
				<polygon fill="#231F20" points="145.495,469.126 137.19,488.331 140.304,488.331 144.456,487.293 148.609,486.774 
					152.761,485.736 155.356,485.217 156.914,485.217 158.989,485.736 160.547,486.255 162.104,486.774 162.623,487.812 
					163.661,488.85 164.18,489.889 164.699,488.85 165.737,487.293 166.775,486.255 168.332,485.736 170.408,485.217 
					171.966,485.217 173.523,485.217 177.156,485.736 182.865,487.293 187.537,488.331 190.132,488.331 190.651,488.85 
					182.346,469.646 179.751,469.126 177.156,469.126 175.08,468.607 173.523,468.089 171.447,467.57 170.408,467.051 
					168.852,467.051 167.294,467.051 166.256,467.051 165.737,467.57 165.218,468.089 164.699,468.607 164.18,469.126 
					164.18,469.126 163.661,468.607 163.661,468.089 162.623,467.57 162.623,467.57 161.065,467.051 160.028,466.532 
					157.952,466.532 156.394,467.57 154.318,467.57 153.28,468.089 151.723,468.607 150.166,468.607 147.571,469.126 
					146.533,469.126 				"/>
				<path fill="#231F20" d="M156.394,467.051l-1.557,0.519l-1.557,0.52l-1.558,0.518l-1.557,0.519l-2.595-0.519h-2.076h-0.519
					l-7.786,19.724l0.519,0.519l2.596-0.519l4.152-0.519l4.153-0.519l4.152-1.038l2.595-0.519h1.557l1.557,0.519l1.558,0.519
					l1.557,0.519l0.519,0.519l0.519,1.038l0.519,1.039h0.519l0.52-1.039l1.038-1.557l1.038-1.038l1.557-0.519l1.558-0.519h3.633
					l3.634,0.519l5.19,1.557l4.671,0.519l3.114,0.519l0.52,0.519l0.519-0.519l-8.305-19.205l0,0l-2.595-0.519h-2.595l-2.595-0.518
					l-1.038-0.52l-1.557-0.519l-1.558-0.519h-1.557h-2.596l-1.038,0.519l-0.519,1.039h-0.519c0,0,0,0-0.52,0.518l0,0l-0.519-0.518
					v-0.52l-0.519-0.519l-1.038-0.519l-1.038-0.519h-2.077L156.394,467.051z M146.533,469.646h1.038l2.076-0.519l1.558-0.519
					l1.557-0.518l1.557-0.52l1.558-0.519l2.076-0.519h2.076l1.038,0.519l1.039,0.519v0.52l1.038,0.518v0.519l0.519,0.519h0.52
					l0.519-0.519h0.519l0.519-1.037h0.519h1.039h2.595l1.557,0.518l1.557,0.519l1.558,0.519l2.595,0.519h2.595l2.076,0.52
					c0,0.519,7.267,17.128,8.305,18.166l-3.115-0.519l-4.671-0.519l-5.19-1.557l-3.633-0.519h-3.633l-1.558-0.519l-2.076,0.519
					l-1.038,1.038l-1.038,1.557v0.519c0-0.519-0.52-0.519-0.52-0.519l-0.519-0.519l-1.038-1.038l-1.557-0.519l-1.558-0.519
					l-2.076-0.519h-2.076h-2.076l-4.152,1.038l-4.153,0.519l-4.152,0.519c0,0-1.557,0-2.076,0.519
					C138.228,487.293,145.495,469.646,146.533,469.646C146.014,469.646,146.533,469.646,146.533,469.646z"/>
				<polygon fill="#D0D2D3" points="146.014,469.126 137.19,488.331 140.823,487.812 144.976,486.774 148.609,486.255 
					152.761,485.217 155.876,484.698 156.914,484.698 158.989,485.217 160.547,485.736 162.104,486.774 162.623,487.293 
					163.661,488.331 164.18,489.37 164.699,488.331 165.737,486.774 166.775,485.736 168.332,485.217 170.408,484.698 
					171.966,484.698 173.523,484.698 177.156,485.736 182.865,486.774 187.018,487.812 189.613,488.331 190.651,488.331 
					182.346,469.126 179.232,469.126 177.156,468.607 175.08,468.089 173.523,467.57 171.447,467.051 170.408,467.051 
					168.852,466.532 167.294,466.532 166.256,467.051 165.737,467.57 165.218,467.57 164.699,468.607 164.18,468.607 
					164.18,469.126 163.661,468.607 163.661,467.57 163.142,467.57 162.623,467.051 161.065,466.532 160.547,466.532 
					157.952,466.532 156.394,467.051 154.318,467.57 153.28,468.089 152.242,468.607 150.166,468.607 147.571,468.607 
					146.533,469.126 				"/>
				<path fill="#231F20" d="M166.256,466.532l-0.519,0.519l-0.519,0.519c0,0-1.038,0.52-1.038,1.038l-0.52-0.518l-0.519-1.039
					l-1.038-0.519l-1.039-0.519h-1.038h-2.076l-2.076,0.519l-2.077,0.519l-1.557,0.519l-1.038,0.52h-1.558l-2.076,0.518
					l-1.557,0.519h-0.519l-8.305,18.686l0.519,0.519l3.115-0.519l4.152-0.519l4.152-0.519l4.153-1.038l2.595-0.519h1.557
					l2.076,0.519l1.557,0.519l1.558,0.519l1.557,1.557l0.519,1.558h0.519l0.519-1.039l1.039-1.557l1.038-1.038l1.558-0.519
					l2.076-0.519h2.076l3.633,0.519l5.709,1.557l4.152,0.519l3.115,0.519l0.519,0.519l0.518-0.519l-8.305-19.205h-0.519h-3.114
					l-2.595-0.519l-2.076-0.518l-1.038-0.52l-1.557-0.519h-1.558l-1.557-0.519h-1.557H166.256z M164.699,469.126L164.699,469.126
					L164.699,469.126l1.557-1.557l0.52-0.519l1.038-0.519h1.558l1.557,0.519h1.557l1.558,0.519l1.557,0.52l2.076,0.518l2.595,0.519
					c0,0,2.076,0,2.595,0c0,0.519,7.267,17.129,7.786,18.167l-3.115-0.519h-4.671l-5.709-1.557l-3.633-0.519h-3.115l-2.076,0.519
					l-1.557,0.519l-1.557,1.038l-1.038,1.557c0,0,0,0,0,0.519c0-0.519-0.52-0.519-0.52-0.519l-0.519-1.038l-0.519-0.519
					l-1.558-0.519l-1.557-0.519l-2.076-0.519h-1.557l-3.114-0.519l-4.152,1.038l-3.633,1.038l-4.152,0.519c0,0-2.076,0-2.595,0.519
					c0.519-1.038,8.305-17.647,8.305-18.167l0,0l1.557-0.519l2.595-0.519h1.557l1.038-0.518l1.557-0.52l2.076-0.519l1.557-0.519
					h3.115l1.038,0.519l0.519,0.519l0.519,0.52l0.52,0.518L164.699,469.126L164.699,469.126z"/>
				<rect x="163.661" y="469.126" fill="#231F20" width="0.52" height="20.243"/>
			</g>
			<path fill="#FFFFFF" d="M224.908,416.704v-1.038l0,0c0.519,0,0.519,0,0.519-0.519c0.52,0,0.52-0.519,0.52-0.519h1.557
				c0,0.519,0,0.519-0.519,1.038C226.984,416.704,225.946,416.704,224.908,416.704L224.908,416.704L224.908,416.704z
				 M224.908,414.108v-1.038h1.039c0-0.519,0-0.519,0-0.519c-0.52-0.519-0.52-0.519-1.039-0.519l0,0v-1.557
				c1.039,0,1.557,0.52,2.595,1.038c0.52,0.519,0.52,1.557,0.52,2.595H224.908L224.908,414.108z M232.694,412.551
				c-0.519,0-0.519,0-0.519,0c-0.519,0-0.519,0-1.038,0.519c-0.519,0-0.519,0.519-0.519,0.519v2.595h-1.558v-5.19h1.558v1.038l0,0
				c0.519-0.519,1.038-1.557,1.557-1.557c0,0,0.519,0,0.519,0.52V412.551L232.694,412.551z M238.922,415.147
				c0,1.038-1.038,1.557-2.595,1.557c-1.557,0-3.114-0.519-3.114-1.557h1.557c0,0.519,0.52,0.519,1.038,0.519
				c0.519,0,1.038-0.519,1.038-0.519l-0.519-0.519c-0.519,0-0.519,0-1.038-0.519c-1.039,0-1.558-0.519-1.558-0.519
				c-0.519-0.519-0.519-0.519-0.519-1.557c0-0.519,0.519-0.519,0.519-1.038c0.519-0.52,1.038-0.52,2.076-0.52
				c0.519,0,1.558,0.52,2.077,0.52c0.519,0.519,0.519,0.519,0.519,1.038h-1.557c0-0.519-0.519-0.519-0.519-0.519
				c-0.519,0-1.038,0-1.038,0.519c0,0.519,0.518,0.519,1.557,0.519c0.52,0,1.039,0.519,1.557,0.519
				C238.403,413.589,238.922,414.108,238.922,415.147L238.922,415.147z M241.517,410.475h-1.557v-1.557h1.557V410.475
				L241.517,410.475z M241.517,416.704h-1.557v-5.709h1.557V416.704L241.517,416.704z M246.188,416.704c-0.519,0-1.038,0-1.557,0
				c-0.52,0-1.038,0-1.038-0.519c-0.519,0-0.519-0.519-0.519-1.038v-3.114h-1.038v-1.038h1.038v-1.558h1.558v1.558h1.557v1.038
				h-1.038v2.595c0,0.519,0,0.519,0,0.519h0.519c0.519,0,0.519,0,0.519,0V416.704L246.188,416.704z M252.417,410.995l-2.076,5.709
				c-0.519,0.519-0.519,1.038-0.519,1.038c-0.519,0.519-0.519,0.519-1.557,0.519c-0.519,0-0.519,0-1.038,0v-1.038h0.519
				c0.519,0,0.519-0.519,0.519-1.038l-2.076-5.19h2.076l1.039,3.633l0,0l1.038-3.633H252.417z M224.908,410.475v1.038
				c-0.519,0-1.038,0.519-1.038,1.557h1.038v1.038h-1.038c0,1.038,0.519,1.557,1.038,1.557v1.038c-2.076,0-3.114-1.038-3.114-2.595
				c0-1.038,0.519-1.557,0.519-2.076C223.351,410.995,223.87,410.475,224.908,410.475L224.908,410.475L224.908,410.475z
				 M188.575,416.704v-1.038c0.519,0,0.519,0,0.519-0.519c0.519,0,0.519-0.519,0.519-0.519v-1.038h-0.519c0,0,0,0.519-0.519,0.519
				v-1.038c0.519,0,0.519,0,0.519,0c0.519,0,0.519,0,0.519-0.519c0,0,0,0,0-0.519c0-0.519-0.519-0.519-0.519-0.519
				c-0.519,0-0.519,0-0.519,0v-1.038h0.519c0.519,0,1.558,0.52,2.076,0.52c0.519,0,0.519,0.519,0.519,1.557v2.595
				c0,0.519,0,0.519,0.519,0.519c0,0,0,0.519,0,0c0,0.519,0,0.519,0,0.519h-0.519c-0.519,0-0.519,0-1.038,0l-0.519-0.519l0,0l0,0
				C189.613,416.185,189.094,416.704,188.575,416.704L188.575,416.704z M194.804,416.704h-2.076v-7.786h2.076V416.704
				L194.804,416.704z M205.703,413.589c0,1.038-0.519,1.557-0.519,2.076c-0.519,0.519-1.557,0.519-2.595,0.519
				c-1.039,0-1.558,0-2.595-0.519c-0.52-0.519-0.52-1.038-0.52-2.076v-4.152h1.557v4.671c0,0.519,0.519,1.038,1.558,1.038
				c1.038,0,1.557-0.519,1.557-1.038v-4.671h2.076v4.152H205.703z M212.451,416.704h-1.557v-3.633c0-0.519-0.519-1.038-1.038-1.038
				c-0.519,0-0.519,0-0.519,0.519c-0.52,0.519-0.52,0.519-0.52,0.519v3.633h-1.557v-5.709h1.557v0.519l0,0
				c0.52-0.519,1.039-1.038,1.557-1.038c0.519,0,1.039,0.52,1.558,0.52c0.519,0,0.519,0.519,0.519,1.038V416.704L212.451,416.704z
				 M215.046,410.475h-1.557v-1.557h1.557V410.475L215.046,410.475z M215.046,416.704h-1.557v-5.709h1.557V416.704L215.046,416.704z
				 M221.793,410.995l-2.076,5.709h-2.076l-2.076-5.709h2.076l1.039,3.633l0,0l1.038-3.633H221.793z M188.575,410.475v1.038
				c-0.519,0.519-1.039,0.519-1.039,1.038h-1.557c0-0.519,0-1.038,0.518-1.557C187.537,410.995,188.056,410.475,188.575,410.475
				L188.575,410.475z M188.575,413.07v1.038h-0.519c-0.52,0-0.52,0.519-0.52,0.519c0,0.519,0.52,0.519,0.52,0.519
				c0.519,0,0.519,0,0.519,0v1.038c-0.519,0-0.519,0-0.519,0c-1.558,0-2.076-0.519-2.076-1.557c0-1.038,0.518-1.557,1.557-1.557
				C188.056,413.07,188.575,413.07,188.575,413.07L188.575,413.07z M175.599,416.704v-1.038l0,0c0.52,0,1.039-0.519,1.039-1.557
				c0-1.557-0.519-1.557-1.039-1.557l0,0v-2.076l0,0c2.076,0,3.115,1.038,3.115,3.114
				C178.713,415.665,177.675,416.704,175.599,416.704L175.599,416.704L175.599,416.704z M184.941,416.704h-1.557v-3.633
				c0-0.519-0.52-1.038-1.039-1.038c-0.519,0-0.519,0-0.519,0.519c-0.519,0.519-0.519,0.519-0.519,0.519v3.633h-1.558v-5.709h1.558
				v0.519l0,0c0.519-0.519,1.038-1.038,1.557-1.038c0.52,0,1.039,0.52,1.557,0.52c0.519,0,0.519,0.519,0.519,1.038V416.704
				L184.941,416.704z M175.599,410.475v1.557c-1.038,0-1.557,0.519-1.557,1.557c0,1.038,0.519,1.557,1.557,1.557v1.038
				c-2.076,0-3.114-1.038-3.114-2.595C172.484,411.513,173.523,410.475,175.599,410.475L175.599,410.475z M161.585,416.704v-1.038
				c0.519,0,0.519,0,0.519-0.519c0.519,0,0.519-0.519,0.519-0.519v-1.038h-0.519l-0.519,0.519v-1.038c0.519,0,0.519,0,0.519,0
				c0.519,0,0.519,0,0.519-0.519c0,0,0,0,0-0.519c0-0.519-0.519-0.519-1.038-0.519l0,0v-1.038l0,0c1.038,0,1.557,0.52,2.076,0.52
				c0.52,0,0.52,0.519,0.52,1.557v2.595c0,0.519,0,0.519,0,0.519c0.519,0,0.519,0.519,0.519,0c0,0.519,0,0.519,0,0.519h-0.519
				c-0.52,0-1.039,0-1.039,0c-0.519,0-0.519-0.519-0.519-0.519l0,0l0,0C162.623,416.185,162.104,416.704,161.585,416.704
				L161.585,416.704z M168.852,416.704c-0.52,0-0.52,0-1.039,0c-0.519,0-1.038,0-1.557-0.519c0,0-0.519-0.519-0.519-1.038v-3.114
				h-0.519v-1.038h0.519v-1.558h1.558v1.558h1.038v1.038h-1.038v2.595c0,0.519,0,0.519,0.519,0.519c0,0,0,0,0.519,0h0.52V416.704
				L168.852,416.704z M171.447,410.475h-1.557v-1.557h1.557V410.475L171.447,410.475z M171.447,416.704h-1.557v-5.709h1.557V416.704
				z M161.585,410.475v1.038c-0.52,0.519-1.038,0.519-1.038,1.038h-1.558c0-0.519,0.519-1.038,0.519-1.557
				C160.028,410.995,160.547,410.475,161.585,410.475L161.585,410.475z M161.585,413.07v1.038c-0.52,0-0.52,0-0.52,0
				c-0.519,0-0.519,0.519-0.519,0.519c0,0.519,0,0.519,0.519,0.519h0.52v1.038c-0.52,0-0.52,0-1.038,0
				c-1.558,0-2.077-0.519-2.077-1.557c0-1.038,0.519-1.557,2.077-1.557C161.065,413.07,161.065,413.07,161.585,413.07
				L161.585,413.07z M143.938,416.704v-1.038l0,0c0.519,0,0.519,0,0.519-0.519c0.52,0,0.52-0.519,0.52-0.519h1.557
				c0,0.519-0.519,0.519-0.519,1.038C145.495,416.704,144.976,416.704,143.938,416.704L143.938,416.704L143.938,416.704z
				 M143.938,414.108v-1.038h1.038c0-0.519,0-0.519,0-0.519c-0.52-0.519-0.52-0.519-1.038-0.519l0,0v-1.557
				c1.038,0,1.557,0.52,2.076,1.038c0.519,0.519,0.519,1.557,0.519,2.595H143.938L143.938,414.108z M151.723,412.551
				c-0.519,0-0.519,0-0.519,0c-0.519,0-1.038,0-1.038,0.519c-0.52,0.519-0.52,0.519-0.52,1.038v2.595h-2.076v-5.709h2.076v1.038l0,0
				c0.52-0.519,0.52-1.557,1.558-1.557c0.519,0,0.519,0,0.519,0.52V412.551L151.723,412.551z M157.952,416.704h-1.558v-3.633
				c0-0.519-0.518-1.038-0.518-1.038c-0.519,0-0.519,0-0.519,0.519c-0.519,0.519-0.519,0.519-0.519,0.519v3.633h-1.557v-5.709h1.557
				v0.519l0,0c0-0.519,0.519-1.038,1.557-1.038c0.52,0,1.039,0.52,1.558,0.52c0,0.519,0,1.038,0,1.557V416.704z M143.938,410.475
				v1.038c-0.519,0-1.038,0.519-1.558,1.557h1.558v1.038h-1.558c0,1.038,0.52,1.557,1.558,1.557v1.038
				c-2.076,0-3.114-1.038-3.114-2.595c0-1.038,0.519-1.557,0.519-2.076C141.861,410.995,142.899,410.475,143.938,410.475
				L143.938,410.475L143.938,410.475z M113.833,416.704v-1.557c1.038,0,1.557-0.519,1.557-1.557c0-1.038-0.519-1.557-1.557-1.557
				v-1.038c0.519,0,1.038,0.519,1.557,0.519l0,0v-2.595h1.557v7.786h-1.557v-0.519l0,0
				C114.871,416.185,114.871,416.704,113.833,416.704L113.833,416.704z M120.062,410.475h-1.557v-1.557h1.557V410.475
				L120.062,410.475z M120.062,416.704h-1.557v-5.709h1.557V416.704L120.062,416.704z M122.657,416.704h-1.558v-7.786h1.558V416.704
				L122.657,416.704z M128.885,416.704h-1.557v-7.267h1.557V416.704L128.885,416.704z M135.633,416.704h-1.557v-3.633
				c0-0.519,0-1.038-0.519-1.038c-0.52,0-0.52,0-0.52,0.519c-1.038,0-1.038,0-1.038,0.519v3.633h-1.558v-5.709h1.558v0.519l0,0
				c0.519-0.519,0.519-1.038,1.557-1.038c0.519,0,1.038,0.52,1.557,0.52c0.52,0,0.52,0.519,0.52,1.038V416.704L135.633,416.704z
				 M140.304,416.704c-0.52,0-1.038,0-1.557,0c-0.519,0-0.519,0-1.039-0.519c-0.519,0-0.519-0.519-0.519-1.038v-3.114h-1.038v-1.038
				h1.038v-1.558h1.557v1.558h1.038v1.038h-1.038v2.595c0,0.519,0,0.519,0,0.519h0.519c0.519,0,0.519,0,0.519,0v1.557H140.304z
				 M113.833,410.995v1.038l0,0c-0.519,0-1.038,0.519-1.038,1.557c0,1.038,0.519,1.557,1.038,1.557l0,0v1.557h-0.519
				c-1.038,0-1.558-0.519-2.076-0.519c0-1.038,0-1.557,0-2.595c0-1.038,0-1.557,0.518-2.076
				C112.276,410.995,112.276,410.475,113.833,410.995C113.314,410.475,113.833,410.475,113.833,410.995L113.833,410.995z
				 M107.085,416.704v-1.038l0,0c0.519,0,1.557-0.519,1.557-1.557c0-1.557-0.519-1.557-1.557-1.557l0,0v-2.076l0,0
				c2.076,0,3.114,1.038,3.114,3.114C110.2,415.665,109.162,416.704,107.085,416.704L107.085,416.704z M107.085,410.475v1.557
				c-0.519,0-1.038,0.519-1.038,1.557c0,1.038,0.519,1.557,1.038,1.557v1.038c-2.076,0-3.114-1.038-3.114-2.595
				C103.971,411.513,105.009,410.475,107.085,410.475L107.085,410.475z M92.552,416.704v-1.038c0,0,0.519,0,0.519-0.519l0.519-0.519
				v-1.038h-0.519l-0.519,0.519v-1.038h0.519c0.519,0,0.519,0,0.519-0.519c0.519,0,0.519,0,0.519-0.519
				c0-0.519-0.519-0.519-1.038-0.519l0,0v-1.038l0,0c1.038,0,1.557,0.52,2.076,0.52c0.519,0,0.519,0.519,0.519,1.557v2.595
				c0,0.519,0,0.519,0,0.519s0.519,0.519,0.519,0c0,0.519,0,0.519,0,0.519h-0.519c-0.519,0-1.038,0-1.038,0
				c-0.519,0-0.519-0.519-0.519-0.519l0,0l0,0C93.071,416.185,93.071,416.704,92.552,416.704L92.552,416.704z M99.819,409.956
				L99.819,409.956C99.3,409.956,99.3,409.956,99.819,409.956c-0.519,0-0.519,0-0.519,0.519c-0.519,0-0.519,0-0.519,0.52v0.519
				h1.038v1.038h-1.038v4.671h-1.557v-5.19h-0.519v-1.038h0.519v-0.52c0-1.038,0.519-1.557,1.557-1.557c0.519,0,0.519,0,1.038,0
				V409.956L99.819,409.956z M103.971,409.956C103.452,409.956,103.452,409.956,103.971,409.956c-0.519,0-0.519,0-0.519,0
				c-0.519,0-0.519,0-0.519,0.519c-0.519,0-0.519,0-0.519,0.52v0.519h1.038v1.038h-1.038v4.671h-1.557v-5.19h-0.519v-1.038h0.519
				v-0.52c0-1.038,0.519-1.557,1.557-1.557c0.519,0,0.519,0,1.557,0V409.956z M88.919,412.551c0,1.038-0.519,2.076-0.519,2.595
				c-0.519,0.519-1.557,1.038-2.595,1.038h-0.519v-1.038c0.519,0,0.519-0.519,1.038-0.519c0.519-0.519,0.519-1.038,0.519-1.557
				c0-0.519,0-1.557-0.519-1.557c-0.519-0.519-0.519-0.519-1.038-0.519v-1.558h0.519c1.038,0,1.557,0,2.595,0.519
				C88.4,410.475,88.919,411.513,88.919,412.551L88.919,412.551z M92.552,410.475v1.038c-0.519,0.519-1.038,0.519-1.038,1.038
				h-1.557c0-0.519,0.519-1.038,0.519-1.557C90.995,410.995,91.514,410.475,92.552,410.475L92.552,410.475z M92.552,413.07v1.038
				c-0.519,0-0.519,0-0.519,0c-0.519,0-0.519,0.519-0.519,0.519c0,0.519,0,0.519,0.519,0.519c0,0,0,0,0.519,0v1.038
				c-0.519,0-0.519,0-1.038,0c-1.557,0-2.076-0.519-2.076-1.557c0-1.038,0.519-1.557,2.076-1.557
				C92.033,413.07,92.033,413.07,92.552,413.07z M85.286,416.704h-3.633v-7.267h3.633v1.038l0,0h-1.557v4.671h1.557l0,0V416.704z"/>
			<path fill="#E6E7E8" d="M121.619,513.764l8.305,3.634c2.595,1.558,5.19,2.595,6.229,4.152c1.557,1.557,2.595,3.633,3.114,5.709
				c0.519,1.558,0.519,3.634,0.519,5.71c-0.519,2.595-1.038,4.672-2.076,6.747c-1.557,3.633-3.114,5.71-4.671,7.267
				c-1.557,1.557-3.633,2.596-5.709,3.634c-1.557,0.519-3.633,0.519-5.709,0.519l0,0v-8.823c1.038-0.52,1.557-0.52,3.114-1.558
				c0.519-1.038,1.557-2.595,3.114-5.19c1.557-3.633,1.557-5.71,1.557-7.785c-0.519-1.558-2.076-3.115-4.671-4.152l-2.595-1.558
				l-0.519,1.558V513.764z M115.39,511.168l6.229,2.596v9.343l-7.786,16.609l2.595,1.038c2.077,1.038,3.634,1.558,5.191,1.558
				c0,0,0,0,0.519,0v8.823c-2.595-0.519-4.671-1.038-6.229-1.557l-15.052-6.747L115.39,511.168z"/>
			<rect x="158.989" y="532.449" fill="#E6E7E8" width="10.9" height="34.775"/>
			<path fill="#E6E7E8" d="M205.184,514.803l9.862-4.672l8.824,18.686c1.038,2.076,1.557,3.633,1.557,5.709
				c0,1.558,0,3.634-0.519,5.71c-0.519,1.557-1.557,3.113-2.595,4.671c-1.557,1.558-4.152,2.596-6.229,4.152
				c-1.557,0.52-3.633,1.558-5.19,1.558c-2.076,0.519-4.152,1.038-5.191,1.038c-1.557,0-3.114-0.519-4.671-1.038
				c-1.557-0.52-3.114-1.558-4.152-2.596c-1.557-1.557-2.595-3.634-3.633-4.672l-9.343-18.685l9.861-4.671l9.343,19.204
				c0.519,1.558,1.558,2.596,3.114,3.635c1.557,0.517,3.115,0.517,5.191-0.52c1.557-1.038,2.595-2.076,3.114-3.634
				c0.519-1.557,0.519-2.595-0.519-4.672L205.184,514.803z"/>
			<path fill="#EC1C24" d="M163.142,591.62c6.229,0,11.938,5.19,11.938,11.938c0,6.747-5.709,11.938-11.938,11.938
				c-6.748,0-11.938-5.19-11.938-11.938C151.204,596.81,156.394,591.62,163.142,591.62z"/>
		</g>
	</g>
	<g>
		<path fill-rule="evenodd" clip-rule="evenodd" fill="#09509D" d="M353.974,476.01c-18.182,0.077-36.365,0.101-54.546,0.282
			c-3.079,0.03-3.112-1.089-2.569-3.624c5.629-26.313,11.137-52.652,16.677-78.984c1.053-5.001,2.191-9.986,3.097-15.014
			c0.395-2.193,1.123-3.235,3.599-3.214c17.376,0.146,34.753,0.041,52.126,0.263c5.963,0.077,11.749,1.477,16.926,4.698
			c7.892,4.912,11.586,12.444,11.949,21.327c0.824,20.134-3.361,39.049-15.213,55.798c-0.625,0.935-0.587,2.274-1.754,2.883
			c-7.173,2.294-14.103,5.117-20.422,9.295c-2.021,1.336-3.905,2.822-5.669,4.487C357.024,475.293,355.851,476.526,353.974,476.01z"
			/>
		<path fill-rule="evenodd" clip-rule="evenodd" fill="#09509D" d="M734.103,469.676c-9.703,9.021-21.168,10.83-33.465,7.406
			c-9.068-2.526-14.249-9.284-15.407-18.432c-2.296-18.137,2.024-34.669,14.512-48.292c10.386-11.329,23.722-13.572,38.221-10.048
			c4.521,1.099,7.683,4.271,10.44,9.117c1.406-6.315,2.667-11.834,3.858-17.368c1.023-4.737,2.057-9.476,2.905-14.246
			c0.438-2.467,1.287-3.738,4.144-3.621c5.652,0.234,11.328,0.217,16.982,0.01c2.993-0.11,3.373,1.074,2.838,3.597
			c-5.425,25.552-10.798,51.116-16.192,76.675c-1.304,6.189-2.779,12.349-3.876,18.576c-0.457,2.603-1.63,3.297-4.055,3.229
			c-4.715-0.132-9.438-0.039-14.154-0.039c-6.144,0-6.144,0-5.145-5.842C735.894,468.557,735.149,468.783,734.103,469.676z"/>
		<path fill-rule="evenodd" clip-rule="evenodd" fill="#09509D" d="M466.195,476.72c-4.07-0.421-8.342,1.927-12.24-0.884
			c-1.542-0.414-0.829-1.861-1.271-2.778c-0.146-1.303-0.291-2.606-0.493-4.414c-5.183,3.812-10.352,7.074-16.44,8.511
			c-7.591,1.791-15.208,2.048-22.808,0.307c-8.794-2.016-12.844-7.432-12.97-16.933c-0.162-1.279,1.096-2.387,0.44-3.721
			c-0.078-0.351-0.015-0.679,0.183-0.982c3.031-13.682,12.084-21.577,27.178-23.539c8.272-1.075,16.583-1.86,24.847-2.992
			c5.507-0.754,8.024-3.094,8.798-7.468c0.684-3.862-0.694-6.225-4.376-7.501c-8.743-3.03-17.75,0.182-22.496,8.15
			c-0.716,1.2-1.439,1.764-2.818,1.754c-5.925-0.039-11.85-0.069-17.774,0.008c-3.131,0.04-2.334-1.7-1.74-3.434
			c3.88-11.34,11.952-18.077,23.468-20.448c11.687-2.407,23.512-2.661,35.273-0.264c10.53,2.147,15.427,8.103,13.774,18.689
			c-2.134,13.669-5.366,27.168-8.127,40.74c-0.375,1.845-0.91,3.673-1.108,5.537c-0.248,2.339-0.15,4.669,2.75,5.513
			c0.374,5.549,0.128,5.794-4.86,5.87C470.988,476.478,468.569,476.077,466.195,476.72z"/>
		<path fill-rule="evenodd" clip-rule="evenodd" fill="#09509D" d="M633.725,478.507c-4.981,0.082-9.937,0.077-14.901-0.69
			c-16.6-2.566-24.483-11.366-24.047-28.214c0.323-12.44,3.434-24.25,11.235-34.341c9.237-11.948,22.147-16.038,36.564-16.645
			c6.065-0.255,12.112,0.038,18.046,1.532c11.557,2.909,18.718,10.69,19.128,22.533c0.596,17.185-3.758,32.9-16.938,44.965
			c-6.762,6.188-15.077,9.212-24.161,10.133c-0.63-0.854-1.013-2.328-2.469-0.779C635.526,477.698,635.021,478.794,633.725,478.507z
			"/>
		<path fill-rule="evenodd" clip-rule="evenodd" fill="#39B14A" d="M471.072,530.805c-2.954,13.951-5.795,27.927-8.889,41.846
			c-3.757,16.902-14.707,26.284-32.025,28.18c-8.527,0.934-16.946,0.796-25.247-1.326c-9.999-2.554-15.264-10.218-14.212-20.489
			c1.347-13.147,4.964-25.87,7.437-38.808c1.212-6.342,2.751-12.621,3.921-18.971c0.433-2.353,1.438-3.104,3.755-2.995
			c2.812,0.133,5.643-0.111,8.465-0.191c1.65-1.061,3.288-1.436,4.893,0.083c4.766,0.379,4.766,0.379,3.157,5.864
			c0.748,2.32,0.165,4.39-1.188,6.314c-2.835,13.406-5.717,26.802-8.489,40.221c-1.861,9.012-0.51,12.877,5.026,15.137
			c7.021,2.868,16.23,0.345,20.3-5.575c2.424-3.525,3.308-7.587,4.157-11.69c2.534-12.235,5.162-24.45,7.729-36.678
			c0.136-0.648,0.059-1.338,0.081-2.009c-0.904-2.307,0.31-4.018,1.601-5.709c0.823-5.714,0.823-5.691,6.523-5.727
			c2.115-0.013,4.229-0.157,6.344-0.241c1.733-0.646,3.467-1.538,5.19,0.026c4.801-0.341,3.924,2.366,2.795,5.209
			C472.24,525.835,473.722,528.684,471.072,530.805z"/>
		<path fill-rule="evenodd" clip-rule="evenodd" fill="#09509D" d="M544.646,416.124c-3.136,2.421-6.77,1.083-10.078,0.969
			c-3.586-0.124-4.557,1.336-5.178,4.41c-3.439,17.013-7.084,33.983-10.531,50.995c-0.581,2.873-1.731,3.985-4.792,3.821
			c-5.238-0.282-10.511-0.244-15.754-0.017c-3.297,0.142-4.232-0.785-3.499-4.12c3.088-14.061,5.976-28.166,8.94-42.255
			c0.664-3.158,1.257-6.334,2.025-9.467c0.622-2.54-0.235-3.564-2.803-3.216c-0.132,0.018-0.27,0.004-0.403,0.003
			c-8.406-0.13-8.406-0.13-6.536-8.554c1.748-7.865,1.754-8.047,9.81-7.814c3.457,0.1,5.027-0.953,5.021-4.412
			c-0.002-0.917,0.496-1.823,0.604-2.753c1.574-13.801,9.396-19.634,23.398-20.939c5.515-0.514,11.023,0.025,16.523,0.521
			c1.88,0.169,2.756,0.79,2.238,2.762c-0.272,1.039-0.446,2.105-0.701,3.148c-0.697,2.87-0.656,6.337-2.327,8.439
			c-1.854,2.339-5.554,0.614-8.425,0.975c-4.832,0.606-8.754,5.791-8.075,10.79c0.229,1.687,1.383,1.352,2.376,1.367
			c2.827,0.044,5.663,0.13,8.483-0.017c2.307-0.121,2.845,0.745,2.208,2.839c-0.578,1.907-1.263,3.821-0.99,5.881
			C545.744,411.712,546.779,414.285,544.646,416.124z"/>
		<path fill-rule="evenodd" clip-rule="evenodd" fill="#09509D" d="M547.13,411.308c0.672-2.838,1.386-5.667,2.001-8.517
			c0.421-1.954,1.812-1.948,3.375-2.027c3.05-0.153,6.761,1.284,8.974-0.648c2.195-1.916,1.705-5.772,2.346-8.778
			c2.256-10.592,7.973-16.013,18.542-17.996c7.285-1.366,14.482-0.245,21.719,0.018c1.346,0.049,2,0.666,1.692,2.059
			c-0.204,0.92-0.435,1.833-0.658,2.748c-0.788,3.265-0.691,7.262-2.614,9.588c-1.932,2.335-6.114,0.284-9.232,1.031
			c-1.227,0.248-2.316,0.843-3.433,1.366c-3.009,2.134-2.928,5.586-3.666,8.673c-0.434,1.807,0.794,1.974,2.134,1.969
			c2.829-0.009,5.662,0.08,8.489-0.026c2.109-0.079,3.111,0.533,2.396,2.788c-0.203,0.639-0.275,1.318-0.432,1.973
			c-0.902,3.771-0.704,8.619-3.031,11c-2.265,2.318-7.177,0.691-10.913,0.65c-2.709-0.031-2.976,1.59-3.379,3.528
			c-3.615,17.393-7.348,34.763-10.832,52.182c-0.558,2.79-1.746,3.46-4.309,3.395c-5.523-0.141-11.054-0.151-16.575,0.001
			c-2.805,0.078-3.733-0.415-3.041-3.603c3.31-15.247,6.33-30.556,9.451-45.843c0.217-1.959,0.751-3.858,1.148-5.78
			c0.553-2.672-0.104-4.079-3.145-3.722c-1.441,0.169-2.919,0.037-4.381,0.027c-4.098-0.026-4.592-0.708-3.412-4.691
			C546.497,412.155,546.764,411.703,547.13,411.308z"/>
		<path fill-rule="evenodd" clip-rule="evenodd" fill="#39B14A" d="M678.035,573.215c-6.466,0-12.933,0.07-19.396-0.039
			c-2.213-0.038-3.061,0.738-3.313,2.948c-0.69,6.014,0.861,9.894,4.964,11.631c5.848,2.479,13.602,0.899,16.647-4.263
			c2.165-3.673,4.744-4.444,8.515-4.146c3.348,0.264,6.734,0.133,10.098,0.031c2.625-0.078,3.013,0.838,1.944,3.12
			c-4.329,9.245-11.9,14.488-21.447,16.903c-7.497,1.896-15.169,2.043-22.817,0.43c-10.585-2.233-16.151-7.974-16.908-18.688
			c-1.221-17.372,6.407-36.54,25.861-42.31c8.128-2.411,16.396-2.832,24.697-0.666c8.816,2.301,13.987,8.325,14.978,17.394
			c0.544,5.001,0.086,9.92-0.663,14.872c-0.337,2.242-1.209,2.86-3.359,2.821C691.236,573.139,684.635,573.214,678.035,573.215z"/>
		<path fill-rule="evenodd" clip-rule="evenodd" fill="#39B14A" d="M778.7,600.815c-5.684,0.032-11.324-0.336-16.721-2.306
			c-7.487-2.734-10.94-8.568-9.832-16.04c0.299-2.012,1.029-2.759,3.072-2.709c4.714,0.115,9.438,0.109,14.152,0.002
			c1.951-0.045,2.806,0.552,3.249,2.573c0.984,4.467,3.117,5.925,8.12,6.161c5.672,0.268,9.911-1.728,11.299-5.316
			c1.182-3.059,0.019-5.062-3.875-6.081c-5.731-1.502-11.535-2.731-17.265-4.239c-5.58-1.469-11.356-3.237-12.463-9.923
			c-1.222-7.363,1.148-13.886,6.786-18.934c4.031-3.613,8.992-5.364,14.263-6.203c9.273-1.478,18.534-1.936,27.447,1.758
			c6.752,2.799,9.967,7.82,9.571,13.968c-0.13,2.032-0.829,2.889-2.916,2.85c-4.716-0.088-9.436-0.06-14.153-0.009
			c-1.54,0.018-2.483-0.218-2.62-2.111c-0.225-3.078-2.443-4.329-5.202-4.703c-3.496-0.475-6.978-0.503-10.308,0.955
			c-1.879,0.82-3.104,2.228-3.258,4.275c-0.16,2.096,1.466,3.082,3.02,3.901c4.998,2.635,10.6,2.936,16.003,3.954
			c3.063,0.576,6.061,1.337,8.933,2.505c5.944,2.414,8.673,7.631,7.462,14.023c-2.153,11.37-9.278,18.274-21.101,20.497
			C787.844,600.515,783.291,600.871,778.7,600.815z"/>
		<path fill-rule="evenodd" clip-rule="evenodd" fill="#39B14A" d="M498.408,545.83c7.381-7.857,15.823-9.234,24.858-8.443
			c9.434,0.825,14.87,7.529,13.124,16.578c-2.751,14.263-5.879,28.452-8.745,42.692c-0.414,2.059-1.456,2.618-3.331,2.593
			c-4.309-0.055-8.625-0.143-12.927,0.03c-2.856,0.116-3.391-0.836-2.797-3.548c2.474-11.301,4.822-22.629,7.062-33.979
			c1.474-7.473-1.699-10.675-9.262-9.659c-5.899,0.793-10.188,4.836-11.628,11.345c-2.355,10.638-4.631,21.292-6.768,31.978
			c-0.564,2.817-1.563,4.164-4.705,3.894c-3.609-0.313-7.299-0.381-10.894,0.008c-4.165,0.445-4.301-1.382-3.58-4.618
			c2.988-13.393,5.842-26.815,8.74-40.229c0.909-4.208,1.873-8.405,2.668-12.635c0.438-2.331,1.412-3.438,3.996-3.284
			c3.758,0.222,7.55,0.236,11.307,0.005c3.475-0.216,4.847,0.781,3.434,4.292C498.719,543.442,498.711,544.132,498.408,545.83z"/>
		<path fill-rule="evenodd" clip-rule="evenodd" fill="#39B14A" d="M922.333,576.285c2.999-5.821,6.011-11.635,8.989-17.466
			c2.756-5.392,5.577-10.758,8.17-16.229c1.352-2.858,3.004-4.401,6.463-4.064c3.738,0.363,7.549,0.247,11.31,0.035
			c3.845-0.217,3.649,1.111,2.039,3.834c-8.978,15.186-17.848,30.436-26.765,45.659c-3.879,6.621-7.979,13.122-11.629,19.868
			c-5.281,9.751-13.232,14.148-24.25,13.106c-1.74-0.164-3.494-0.235-5.244-0.243c-3.086-0.017-4.647-1.03-3.344-4.418
			c0.477-1.237,0.696-2.608,0.834-3.938c0.416-4.013,1.251-6.338,6.583-5.353c6.202,1.145,12.843-6.844,11.752-13.081
			c-2.992-17.104-5.965-34.214-9.161-51.28c-0.618-3.3,0.01-4.374,3.414-4.165c4.029,0.245,8.093,0.229,12.121-0.001
			c2.879-0.163,4.052,0.715,4.31,3.704c0.88,10.191,2.017,20.36,3.057,30.538c0.107,1.039,0.21,2.08,0.316,3.119
			C921.643,576.036,921.988,576.159,922.333,576.285z"/>
		<path fill-rule="evenodd" clip-rule="evenodd" fill="#39B14A" d="M600.121,580.327c2.155-4.386,4.344-8.757,6.457-13.163
			c4.073-8.497,8.184-16.979,12.104-25.546c1.063-2.32,2.461-3.148,4.955-3.06c4.713,0.168,9.433,0.115,14.149,0.023
			c2.555-0.049,2.686,0.81,1.55,2.818c-10.471,18.523-20.909,37.067-31.295,55.64c-0.922,1.647-2.062,2.245-3.876,2.221
			c-5.525-0.069-11.053-0.086-16.575,0.006c-2.136,0.036-3.01-0.618-3.327-2.9c-2.55-18.267-5.229-36.517-7.952-54.758
			c-0.361-2.416,0.436-3.099,2.74-3.036c4.445,0.123,8.913,0.285,13.335-0.042c3.72-0.274,4.84,1.025,4.96,4.684
			c0.381,11.57,1.117,23.128,1.727,34.691c0.04,0.749,0.16,1.494,0.242,2.241C599.584,580.207,599.853,580.269,600.121,580.327z"/>
		<path fill-rule="evenodd" clip-rule="evenodd" fill="#09509D" d="M813.613,476.099c-2.349-1.057-0.844-2.832-0.577-4.136
			c4.721-22.931,9.537-45.843,14.336-68.758c1.766-8.43,3.582-16.848,5.275-25.29c0.512-2.547,1.362-3.918,4.431-3.741
			c5.506,0.317,11.049,0.235,16.565,0.034c3.173-0.116,3.532,1.109,2.938,3.843c-5.262,24.166-10.43,48.353-15.618,72.535
			c-0.086,0.391-0.095,0.799-0.141,1.2c-3.755-0.287-7.503-0.522-10.836,1.771c-6.347,4.648-8.656,11.789-11.548,18.583
			C817.54,474.248,817.188,477.182,813.613,476.099z"/>
		<path fill-rule="evenodd" clip-rule="evenodd" fill="#39B14A" d="M879.307,520.302c9.584,0,9.584,0,7.547,9.683
			c-1.691,8.055-1.697,8.139,6.527,8.569c2.25,0.118,2.882,0.922,2.373,2.954c-0.098,0.392-0.192,0.784-0.277,1.179
			c-1.917,8.797-1.914,8.875-10.729,9.25c-2.045,0.085-2.771,0.828-3.142,2.718c-1.741,8.836-3.649,17.64-5.393,26.477
			c-0.779,3.943,0.162,5.056,4.212,5.357c1.198,0.088,2.429,0.025,3.618-0.144c1.928-0.271,2.438,0.56,2.068,2.299
			c-0.589,2.763-1.154,5.531-1.724,8.3c-0.273,1.328-0.965,2.109-2.414,2.263c-6.572,0.696-13.162,1.081-19.701-0.045
			c-4.8-0.827-6.687-3.19-6.706-8.076c-0.032-6.929,2.335-13.477,3.502-20.217c0.895-5.164,2.066-10.283,3.259-15.39
			c0.626-2.685-0.165-3.546-2.954-3.548c-6.504-0.005-6.501-0.136-5.016-6.695c0.207-0.918,0.453-1.837,0.544-2.77
			c0.281-2.912,1.607-4.064,4.739-3.942c6.068,0.231,6.075,0.028,7.385-5.844c0.616-2.757,1.563-5.49,1.771-8.278
			c0.268-3.607,2.012-4.543,5.264-4.138C875.784,520.477,877.557,520.302,879.307,520.302z"/>
		<path fill-rule="evenodd" clip-rule="evenodd" fill="#09509D" d="M785.203,476.241c-2.695,0-5.4-0.136-8.085,0.038
			c-2.864,0.186-3.8-0.612-3.135-3.664c3.615-16.574,7.058-33.184,10.553-49.783c1.331-6.32,2.735-12.629,3.907-18.979
			c0.423-2.281,1.303-3.171,3.693-3.109c5.926,0.151,11.861,0.124,17.79,0.015c2.474-0.045,2.921,0.8,2.419,3.138
			c-4.918,22.898-9.758,45.813-14.555,68.736c-0.543,2.6-1.492,4.03-4.509,3.674C790.624,475.993,787.899,476.241,785.203,476.241z"
			/>
		<path fill-rule="evenodd" clip-rule="evenodd" fill="#39B14A" d="M733.43,547.551c2.179-1.975,4.157-3.94,6.313-5.686
			c4.751-3.845,10.291-5.044,16.298-4.645c1.922,0.128,2.622,0.785,2.155,2.767c-1.019,4.325-2.037,8.659-2.773,13.037
			c-0.367,2.187-1.386,2.483-3.285,2.289c-2.125-0.216-4.237-0.523-6.429-0.284c-9.523,1.033-15.36,5.926-17.486,15.224
			c-1.92,8.398-3.711,16.831-5.323,25.292c-0.527,2.77-1.563,3.925-4.489,3.753c-4.031-0.238-8.088-0.145-12.128-0.03
			c-2.438,0.068-3.369-0.489-2.771-3.231c3.954-18.154,7.785-36.338,11.58-54.526c0.431-2.065,1.273-3.007,3.485-2.941
			c4.31,0.13,8.632,0.15,12.94-0.001c2.94-0.102,3.498,1.001,2.67,3.648C733.685,543.831,732.967,545.511,733.43,547.551z"/>
		<path fill-rule="evenodd" clip-rule="evenodd" fill="#39B14A" d="M827.248,599.235c-9.66,0-9.632,0.007-7.653-9.421
			c3.341-15.914,6.715-31.821,9.895-47.767c0.539-2.709,1.674-3.579,4.293-3.482c4.165,0.156,8.342,0.12,12.51,0.012
			c2.331-0.06,3.13,0.661,2.612,3.077c-3.92,18.264-7.787,36.538-11.591,54.825c-0.449,2.154-1.51,2.902-3.607,2.783
			C831.56,599.142,829.402,599.235,827.248,599.235z"/>
		<path fill-rule="evenodd" clip-rule="evenodd" fill="#39B14A" d="M547.99,599.235c-9.186,0-9.298-0.021-7.435-9.185
			c3.272-16.093,6.737-32.146,10.004-48.238c0.505-2.486,1.615-3.346,4.087-3.249c4.036,0.16,8.088,0.147,12.126,0.007
			c2.75-0.097,3.794,0.349,3.068,3.604c-3.9,17.47-7.674,34.972-11.136,52.534c-0.754,3.818-2.308,4.997-5.868,4.561
			C551.245,599.074,549.607,599.235,547.99,599.235z"/>
		<path fill-rule="evenodd" clip-rule="evenodd" fill="#6E7072" d="M400.835,456.587c2.881,2.007-0.84,2.571-0.862,3.943
			c-3.566,1.325-4.723,4.631-6.009,7.668c-3.536,8.354-4.972,17.307-7.121,26.056c-1.509,6.146-3.154,12.251-5.521,18.135
			c-5.412,13.46-15.008,20.558-29.872,20.107c-8.341-0.254-16.695-0.046-25.314-0.046c0.415-2.438,2.439-3.01,4.16-3.68
			c4.836-1.882,9.979-2.283,15.077-2.386c5.644-0.114,11.303-0.38,16.954,0.301c4.013,0.482,7.017-1.368,9.151-4.731
			c3.836-6.041,5.316-12.869,6.702-19.751c2.284-11.341,4.16-22.825,10.401-32.918c1.989-3.217,4.241-6.23,7.17-8.679
			c0.58-0.582,0.316-1.1-0.132-1.604c-0.446-0.659-1.536-1.326,0.012-1.967C397.374,456.958,399.148,457.269,400.835,456.587z"/>
		<path fill-rule="evenodd" clip-rule="evenodd" fill="#6D6F71" d="M813.613,476.099c2.61-0.043,3.08-2.033,3.797-3.969
			c2.431-6.555,5.072-13.018,10.165-18.078c0.551-0.546,1.271-0.924,1.91-1.381c0.89,0.298,1.261,0.951,1.278,1.849
			c-2.13,5.161-5.336,9.88-6.428,15.476c-0.278,1.42-1.011,2.8-0.385,4.288c2.104,1.336,4.415,0.401,6.617,0.634
			c1.505,0.116,3.123-0.174,4.266,1.204c-3.304,0.89-6.669,0.274-10.002,0.35c-2.031,0.046-3.096,0.517-3.588,2.764
			c-3.252,14.854-6.773,29.643-13.248,43.516c-0.85,1.819-0.271,2.293,1.57,2.488c8.724,0.926,14.213,0.008,20.962-3.699
			c-0.394,2.627-3.242,5.856-6.984,7.697c-6.635,3.261-13.653,2.335-20.612,1.68c-2.302-0.218-1.347-1.813-0.904-3.017
			c5.806-15.832,8.84-32.409,13.173-48.636C815.72,477.321,815.191,476.632,813.613,476.099z"/>
		<path fill-rule="evenodd" clip-rule="evenodd" fill="#6E7072" d="M633.725,478.507c0.642-0.812,1.26-1.643,1.93-2.43
			c0.766-0.899,1.676-2.004,2.923-1.367c1.557,0.794,0.169,2.027,0.073,3.07c-1.715,5.381-3.118,10.837-4.436,16.333
			c-0.896,3.743,0.354,4.584,3.69,4.282c1.735-0.156,3.499-0.039,5.247-0.009c1.101,0.018,2.303,0.065,2.328,1.57
			c0.027,1.486-0.544,2.7-2.264,2.746c-2.69,0.072-5.383,0.078-8.076,0.044c-1.512-0.019-2.685,0.345-2.943,2.039
			c-1.063,6.967-3.669,13.389-7.512,20c6.821-0.142,13.22,1.54,18.643-3.171c0.61-0.529,1.397-1.101,2.078-0.232
			c0.619,0.792-0.04,1.567-0.534,2.146c-3.561,4.178-8.075,6.688-13.559,7.127c-3.076,0.248-6.191-0.016-9.28,0.114
			c-2.353,0.1-2.691-0.784-2.114-2.904c1.982-7.257,3.786-14.562,5.699-21.837c0.49-1.863,0.944-3.525-2.003-3.314
			c-1.273,0.091-1.977-0.59-1.953-1.967c0.026-1.446,0.638-2.506,2.121-2.311c3.163,0.418,3.655-1.67,4.396-3.968
			C629.907,489.11,631.863,483.824,633.725,478.507z"/>
		<path fill-rule="evenodd" clip-rule="evenodd" fill="#6E7072" d="M451.544,524.007c-0.534,1.903-1.068,3.806-1.601,5.709
			c-4.707,1.582-9.575,0.863-14.382,1.029c-2.447,0.086-2.45-1.038-1.923-3.039c1.911-7.254,3.574-14.573,5.449-21.838
			c0.471-1.823,0.84-3.193-1.779-3.151c-1.311,0.022-1.949-0.751-1.889-2.053c0.063-1.402,0.714-2.443,2.213-2.24
			c2.989,0.404,3.55-1.621,4.189-3.771c0.84-2.822,1.688-5.651,2.726-8.406c1.853-4.912,3.524-9.971,8.136-13.193
			c0.425,0.93,0.85,1.857,1.273,2.783c-3.693,5.055-4.158,11.198-5.567,16.987c-1.335,5.489-1.116,5.542,4.643,5.544
			c1.075,0.001,2.151-0.026,3.225,0.012c1.314,0.046,2.873-0.198,2.83,1.884c-0.04,1.932-1.274,2.482-2.957,2.484
			c-2.419,0.002-4.839,0.071-7.256-0.006c-1.775-0.057-2.729,0.651-3.083,2.414c-1.25,6.215-3.037,12.244-6.444,17.678
			c-0.588,0.94-0.772,2.001,0.694,1.947C443.881,524.64,447.816,525.762,451.544,524.007z"/>
		<path fill-rule="evenodd" clip-rule="evenodd" fill="#0A509E" d="M803.129,392.032c-2.955,0-5.915-0.104-8.862,0.033
			c-2.289,0.106-3.254-0.592-2.72-2.998c0.931-4.19,1.818-8.393,2.59-12.614c0.352-1.927,1.248-2.739,3.235-2.715
			c6.043,0.074,12.089,0.107,18.13-0.012c2.555-0.05,2.893,0.942,2.363,3.17c-0.963,4.041-1.784,8.123-2.47,12.221
			c-0.391,2.33-1.506,3.106-3.81,2.958C808.778,391.895,805.948,392.032,803.129,392.032z"/>
		<path fill-rule="evenodd" clip-rule="evenodd" fill="#6F7173" d="M734.006,501.964c2.186-2.133,4.783-3.435,7.804-3.896
			c6.381-0.972,10.149,3.164,8.576,9.449c-1.121,4.469-3.915,7.94-6.995,11.165c-1.663,1.741-3.604,3.216-5.137,5.299
			c6.486,1.314,12.561,1.551,18.008-3.299c0.794,2.767-0.794,3.817-1.959,4.941c-4.974,4.809-11.181,5.531-17.67,5.1
			c-1.675-0.11-4.02,0.949-4.851-0.744c-0.67-1.364,1.407-2.689,2.29-3.994c3.1-4.576,6.23-9.13,8.42-14.229
			c1.112-2.595,2.55-5.522,0.426-8.003c-2.276-2.659-5.2-0.828-7.843-0.076c-0.626,0.242-1.359,0.444-1.765-0.186
			C732.875,502.815,733.396,502.307,734.006,501.964z"/>
		<path fill-rule="evenodd" clip-rule="evenodd" fill="#6D6F72" d="M353.974,476.01c6.321-4.953,12.594-9.951,20.16-13.009
			c3.36-1.357,6.744-2.537,10.303-3.201c0.638-0.866,1.784-0.198,2.499-0.831l-0.026,0.014c1.219-0.206,2.665-1.294,3.276,0.848
			c-2.727,0.831-5.455,1.66-8.183,2.49c-1.054,0.684-2.026,1.488-3.097,2.15c-3.264,1.521-6.274,3.471-9.229,5.511
			c-1.158,1.12-3.015,1.335-3.791,2.949c-2.177,0.878-3.837,2.412-5.288,4.199c-8.679,10.686-14.056,22.561-13.193,36.681
			c0.033,0.536,0.046,1.078,0.016,1.613c-0.014,0.259-0.148,0.511-0.27,0.899c-2.222-0.239-2.135-2.191-2.382-3.564
			c-2.138-11.922-0.17-23.009,6.956-33.008C352.567,478.574,353.875,477.645,353.974,476.01z"/>
		<path fill-rule="evenodd" clip-rule="evenodd" fill="#6E7072" d="M594.037,499.597c3.436-1.68,7.118-1.503,10.698-1.008
			c4.343,0.601,6.547,4.707,5.324,9.646c-1.197,4.84-2.924,9.52-5.212,13.956c-1.213,2.349-0.564,2.939,1.935,3.081
			c4.057,0.231,7.043-2.101,10.368-3.992c-0.188,3.852-5.422,9.085-9.815,9.902c-3.62,0.674-6.366-0.475-7.604-4.217
			c-1.206-0.856,0.94-4.119-2.449-3.411c-0.191,0.174-0.416,0.265-0.675,0.269c-1.264,0.315-1.356-0.606-1.53-1.442
			c0.101-1.758,1.389-2.849,2.366-4.095c2.622-3.344,4.284-7.132,5.041-11.274c0.844-4.623-0.469-5.907-5.103-5.26
			c-0.796,0.11-1.584,0.283-2.399,0.198C593.631,501.584,592.313,501.199,594.037,499.597z"/>
		<path fill-rule="evenodd" clip-rule="evenodd" fill="#6E7072" d="M777.671,499.586c3.435-1.716,7.118-1.477,10.695-0.978
			c4.026,0.559,6.307,4.515,5.374,8.913c-1.037,4.895-2.757,9.596-5.031,14.026c-1.758,3.427-0.34,3.82,2.646,3.692
			c3.544-0.152,6.296-2.06,9.192-4.067c0.022,3.666-5.919,9.488-10.013,10.185c-3.546,0.602-6.359-1.29-7.86-5.88
			c-0.79-2.414-1.567-2.381-3.064-0.774c-2.47-0.917-0.708-2.081-0.042-2.912c1.582-1.969,3.345-3.793,3.78-6.422
			c0.651-2.625,2.047-4.995,2.642-7.635c1.114-4.938-0.308-6.536-5.247-5.927c-0.941,0.116-1.871,0.259-2.808-0.013
			C776.722,501.193,776.223,500.504,777.671,499.586z"/>
		<path fill-rule="evenodd" clip-rule="evenodd" fill="#3AB24B" d="M555.252,519.098c0.102-0.723,0.232-1.431,0.952-1.834
			c1.738-1.267,3.698-1.261,5.704-0.987c3.403,1.181,6.922,0.524,10.384,0.567c2.292,0.027,3.216,0.73,2.787,3.091
			c-0.688,3.776-2.05,7.369-2.881,11.103c-6.466,0.951-12.928,1.204-19.376-0.158C551.535,526.521,553.719,522.877,555.252,519.098z
			"/>
		<path fill-rule="evenodd" clip-rule="evenodd" fill="#3AB24B" d="M841.501,531.663c-9.802,0-9.59,0.037-7.838-9.808
			c0.692-3.887,2.258-5.088,6.034-4.713c3.469,0.344,7.007,0.188,10.506,0.035c2.676-0.116,4.298,0.31,2.995,3.484
			c-0.199,0.485-0.164,1.063-0.267,1.591C851.104,531.663,851.104,531.663,841.501,531.663z"/>
		<path fill-rule="evenodd" clip-rule="evenodd" fill="#6F7172" d="M669.734,521.357c-1.201,6.044-9.894,11.511-15.1,10.152
			c-3.136-0.819-4.779-3.072-4.848-6.2c-0.19-8.626,2.521-16.702,5.124-24.757c0.964-2.986,3.884-2.381,5.887-1.811
			c2.505,0.713,0.67,2.701,0.217,3.945c-2.45,6.696-3.545,13.835-6.65,20.309c-0.976,2.036-0.053,2.496,1.888,2.659
			C661.314,526.077,665.818,524.881,669.734,521.357z"/>
		<path fill-rule="evenodd" clip-rule="evenodd" fill="#6E7072" d="M700.067,527.096c-5.798,6.357-19.049,6.803-24.943,0.817
			c-3.307-3.357-3.68-7.446-2.361-11.647c1.643-5.237,4.454-9.776,9.241-12.818c1.318-0.653,2.078-0.151,2.443,1.172
			c0.168,1.902-1.017,3.287-1.873,4.791c-1.417,2.49-2.48,5.076-2.484,8.007c-0.006,3.552,1.88,5.765,4.976,7.145
			c3.107,1.023,6.302,0.288,9.442,0.505c1.82,0.125,3.719-0.295,5.402,0.79C700.314,526.224,700.366,526.638,700.067,527.096z"/>
		<path fill-rule="evenodd" clip-rule="evenodd" fill="#6F7172" d="M777.671,499.586c-0.226,0.622-0.731,1.297,0.324,1.67
			c-0.105,1.734-1.579,2.404-2.674,3.314c-4.229,3.52-7.304,7.821-8.916,13.094c-1.318,4.311,0.641,6.808,5.146,6.669
			c4.007-0.124,6.552-2.639,8.962-5.445c1.05-1.223,1.438-3.282,3.659-3.182c0.006,2.786-2.081,4.38-3.512,6.382
			c-0.508,0.709-2.672,0.997-1.049,2.615c-3.797,4.557-8.283,7.597-14.58,6.443c-4.005-0.733-5.926-3.255-6.166-7.277
			C758.266,513.831,766.721,502.871,777.671,499.586z"/>
		<path fill-rule="evenodd" clip-rule="evenodd" fill="#6F7173" d="M594.037,499.597c-0.583,1.058-0.264,1.572,0.936,1.554
			c0.024,1.714-1.544,2.039-2.528,2.847c-4.692,3.857-8.343,8.426-9.733,14.471c-0.888,3.866,0.938,5.856,4.892,5.855
			c2.936,0,5.221-2.022,8.034-2.291c0.05,0.745,0.218,1.426,0.971,1.79c-6.471,7.944-12.218,9.575-19.298,5.483
			c-4.605-5.788-2.8-11.351,0.594-16.858C582.07,506.645,586.908,501.685,594.037,499.597z"/>
		<path fill-rule="evenodd" clip-rule="evenodd" fill="#6E7072" d="M402.293,507.435c1.407-2.168,3.304-3.763,5.649-4.835
			c0.598,0.123,0.98,0.474,1.125,1.071c-7.739,5.296-9.306,14.297-13.186,21.915c-1.08,2.119-1.075,5.196-4.68,5.19
			c-2.347-0.008-3.128-0.433-2.146-3.008c3.733-9.802,6.891-19.763,6.894-30.424c0-0.629-0.158-1.547,0.696-1.616
			c0.545-0.043,1.241,0.421,1.693,0.846c1.285,1.212,2.344,2.591,2.405,4.482c1.11,2.099-0.518,4.59,0.952,6.632
			c0.032,0.045,0.209,0.021,0.296-0.019C402.103,507.617,402.193,507.517,402.293,507.435z"/>
		<path fill-rule="evenodd" clip-rule="evenodd" fill="#6F7173" d="M469.602,518.065c-1.73-0.01-3.459-0.017-5.189-0.026
			c1.318-1.99,3.819-2.441,5.64-4.325c-3.457-2.508-3.906-5.884-2.213-9.477c1.827-3.874,5.091-5.835,9.391-5.849
			c4.178-0.016,8.356,0.081,12.533,0.154c0.785,0.014,1.688-0.073,2.122,0.809c0.52,1.053-0.167,1.797-0.815,2.485
			c-2.604,2.762-5.653,3.507-9.171,1.933c-1.719-0.771-3.353-1.851-5.148-2.303c-2.534-0.638-4.595,0.427-5.403,2.996
			c-0.81,2.569,1.368,3.238,3.072,3.923c2.509,1.008,5.163,1.494,7.878,1.603c0.971,0.039,1.96,0.23,2.199,1.365
			c0.226,1.068-0.53,1.751-1.266,2.359c-1.576,1.306-3.538,1.534-5.37,1.23C474.408,514.368,471.87,515.748,469.602,518.065z"/>
		<path fill-rule="evenodd" clip-rule="evenodd" fill="#6F7172" d="M543.961,510.918c-2.541,5.759-5.14,11.492-7.59,17.287
			c-0.806,1.903-2.026,2.593-4.02,2.571c-2.041-0.022-2.688-0.699-1.905-2.672c3.929-9.894,6.79-20.042,7.185-30.765
			c0.068-1.849,0.819-2.17,2.171-0.897c1.507,1.419,2.568,3.077,2.623,5.233c0.858,2.322-0.969,5.448,2.222,7.152
			C545.081,509.061,544.245,510.208,543.961,510.918z"/>
		<path fill-rule="evenodd" clip-rule="evenodd" fill="#6E7072" d="M727.551,510.85c-2.353,5.29-4.705,10.58-7.065,15.867
			c-0.384,0.86-0.725,1.751-1.201,2.56c-1.235,2.099-3.432,1.854-5.04,1.226c-1.958-0.768-0.208-2.352,0.177-3.366
			c3.472-9.104,6.235-18.353,6.661-28.178c0.048-1.079-0.536-2.814,0.992-3.121c1.229-0.246,2.024,1.177,2.675,2.174
			c0.73,1.119,1.431,2.306,1.242,3.754c1.13,2.195-1.232,5.564,2.368,7.02C728.626,508.895,727.965,510.182,727.551,510.85z"/>
		<path fill-rule="evenodd" clip-rule="evenodd" fill="#6F7173" d="M683.933,505.385c-0.076-1.21-0.727-1.847-1.929-1.938
			c6.061-5.482,13.313-6.011,20.769-4.46c4.891,1.018,7.6,5.068,7.592,10.088c-0.013,7.938-3.903,13.705-10.297,18.021
			c-0.009-0.279-0.019-0.558-0.029-0.837c-0.274-0.259-0.422-0.576-0.447-0.954c0.08-0.561,0.368-1.016,0.736-1.427
			c1.045-0.884,1.158-2.14,1.325-3.375c0.833-2.974,1.659-5.929,1.304-9.084c-0.893-7.911-8.127-11.628-15.042-7.705
			C686.656,504.428,685.563,505.557,683.933,505.385z"/>
		<path fill-rule="evenodd" clip-rule="evenodd" fill="#707273" d="M516.474,507.79c-0.073,0.47-0.147,0.939-0.224,1.407
			c-1.731,2.774-2.633,5.824-3.01,9.049c0.137,7.526,3.239,9.231,10.212,5.739c1.293-0.648,2.997-2.829,4.04-1.184
			c1.001,1.581-1.393,2.906-2.68,3.956c-3.019,2.458-6.053,4.953-10.305,4.934c-4.109-0.02-6.252-1.715-6.906-5.768
			c-0.84-5.206,0.646-9.914,3.663-14.061c1.541-2.116,2.679-4.646,5.069-6.079C516.958,506.41,516.852,507.092,516.474,507.79z"/>
		<path fill-rule="evenodd" clip-rule="evenodd" fill="#6E7072" d="M516.474,507.79c-0.046-0.668-0.093-1.338-0.14-2.007
			c0.372-0.995,0.091-1.442-1.031-1.413c-1.864,0.051-3.743,0.145-5.595-0.024c-2.461-0.226-3.832,0.572-4.782,3.032
			c-0.828,2.146-2.531,3.954-3.849,5.911c-1.4,0.014-1.427-0.683-0.871-1.681c0.061-0.625-0.025-1.31,0.686-1.667
			c0.993-1.748,2.047-3.487,0.887-5.577c-2.508-0.384-2.818-2.251-2.651-4.224c0.166-1.984,1.113-3.634,3.076-4.384
			c1.928-0.736,3.372-0.058,4.382,1.743c0.845,1.505,2.368,0.996,3.647,1.009c4.816,0.046,9.634,0.018,14.451,0.018
			c0.239,0.328,0.477,0.656,0.714,0.984C522.424,502.271,519.449,505.03,516.474,507.79z"/>
		<path fill-rule="evenodd" clip-rule="evenodd" fill="#6F7173" d="M409.067,503.672c-0.375-0.357-0.75-0.714-1.125-1.071
			c2.558-3.123,6.095-4.309,9.895-4.609c5.564-0.439,8.728,3.521,7.63,9.029c-0.884,4.431-4.194,7.412-6.296,11.111
			c-1.631-0.028-3.262-0.056-4.893-0.083c1.21-2.531,2.53-5.015,3.597-7.603c0.921-2.24,1.768-4.816-0.061-6.835
			c-1.752-1.934-4.206-1.109-6.423-0.462C410.629,503.371,409.842,503.501,409.067,503.672z"/>
		<path fill-rule="evenodd" clip-rule="evenodd" fill="#6F7173" d="M561.726,517.184c-1.84,0.026-3.683,0.054-5.523,0.08
			c1.036-2.163,2.164-4.288,3.091-6.498c2.611-6.236,0.939-8.573-5.658-8.026c-0.789,0.497-1.725,0.796-2.573,0.927
			c-2.418,0.376-1.824-0.702-0.737-1.861c2.226-2.056,4.871-3.242,7.837-3.715c6.402-1.023,9.961,2.83,8.728,9.202
			c-0.559,2.874-2.387,5.034-3.598,7.539C562.694,515.565,562.556,516.604,561.726,517.184z"/>
		<path fill-rule="evenodd" clip-rule="evenodd" fill="#6B6F73" d="M830.283,454.224c-0.266-0.518-0.533-1.036-0.798-1.553
			c3.647-1.984,7.336-3.42,11.336-0.887c3.684,5.16,2.458,10.038-0.854,14.792c-1.057,1.515-2.116,3.025-3.176,4.538
			c-1.365,1.497-2.726,3.004-5.02,2.901c-0.618-0.194-0.99-0.607-1.103-1.249c0.059-1.619,1.293-2.567,2.156-3.721
			c1.364-1.826,2.532-3.727,3.089-5.986C837.261,457.598,835.62,454.977,830.283,454.224z"/>
		<path fill-rule="evenodd" clip-rule="evenodd" fill="#717475" d="M471.072,530.805c0.442-2.512,0.885-5.024,1.327-7.533
			c0.136,1.863,1.396,1.988,2.863,1.934c6.242-0.239,12.799,1.086,18.104-3.728c0.416-0.378,1.013-0.478,1.455-0.033
			c0.647,0.648,0.143,1.251-0.261,1.75c-3.464,4.275-7.102,8.125-13.386,7.619C477.828,530.545,474.44,530.791,471.072,530.805z"/>
		<path fill-rule="evenodd" clip-rule="evenodd" fill="#737577" d="M659.508,489.574c0.171-2.375,0.152-4.576,1.199-6.502
			c1.408-2.593,3.79-3.753,6.391-2.362c2.97,1.589,1.231,3.927-0.012,5.77c-1.113,1.651-2.516,3.121-3.879,4.587
			c-0.774,0.833-1.43,2.359-2.807,1.825C658.773,492.26,659.673,490.567,659.508,489.574z"/>
		<path fill-rule="evenodd" clip-rule="evenodd" fill="#757979" d="M421.139,530.31c0.397-2.107,0.793-4.213,1.189-6.316
			c3.631,1.549,5.681-2.26,9.47-2.828C429.989,526.854,425.381,528.379,421.139,530.31z"/>
		<path fill-rule="evenodd" clip-rule="evenodd" fill="#DFF0E1" d="M561.726,517.184c0.117-1.055,0.56-1.893,1.565-2.354
			c0.161,1.073,0.752,1.635,1.869,1.606c4.626-0.122,9.805,1.526,12.744-3.988c-2.317,5.544-4.26,11.103-0.594,16.858
			c-2.123-0.419-2.029-2.565-3.181-4.164c-0.523,2.165-0.408,4.337-1.932,5.896c0.627-3.7,1.029-7.458,1.955-11.082
			c0.646-2.528-0.42-2.681-2.343-2.664C568.449,517.324,565.088,517.227,561.726,517.184z"/>
		<path fill-rule="evenodd" clip-rule="evenodd" fill="#747B78" d="M555.252,519.098c-0.811,3.929-1.62,7.854-2.43,11.782
			c-1.537-0.317-3.762,0.685-4.516-0.66c-0.965-1.718,1.286-2.903,2.148-4.286C551.925,523.575,553.64,521.369,555.252,519.098z"/>
		<path fill-rule="evenodd" clip-rule="evenodd" fill="#CEDAE9" d="M547.13,411.308c-0.203,5.801-0.203,5.801,5.682,5.801
			c5.719,0,5.747,0.006,4.586,5.528c-0.3,1.426-0.836,2.803-1.265,4.203c-0.036-0.794-0.19-1.602-0.099-2.38
			c0.777-6.548,0.791-6.581-6.028-6.548c-2.029,0.01-4.002,0.101-5.36-1.788c0.091-2.312,0.423-4.569,1.536-6.645
			C546.499,410.089,546.815,410.699,547.13,411.308z"/>
		<path fill-rule="evenodd" clip-rule="evenodd" fill="#898B8C" d="M550.324,501.805c-0.091,0.773-0.861,2.04,1.041,1.275
			c0.692-0.276,1.51-0.236,2.27-0.341c-3.922,1.903-7.051,4.74-9.675,8.179c-0.293-3.116-2.837-5.858-1.535-9.24
			c1.204,1.548,0.471,3.505,0.915,5.36C546.262,505.814,547.426,502.639,550.324,501.805z"/>
		<path fill-rule="evenodd" clip-rule="evenodd" fill="#838587" d="M727.551,510.85c-0.984-2.947-2.528-5.799-1.559-9.083
			c1.092,1.523,0.246,3.374,0.846,5.267c3.004-0.949,4.099-4.489,7.168-5.071c-0.669,1.212-0.046,1.616,1.069,1.714
			C732.076,505.553,729.898,508.29,727.551,510.85z"/>
		<path fill-rule="evenodd" clip-rule="evenodd" fill="#205D9F" d="M369.102,469.513c2.878-2.585,6.144-4.501,9.82-5.713
			c0.495,0.918-0.5,1.271-0.727,1.916c-2.109,1.982-4.333,3.794-7.115,4.774C370.133,470.745,369.138,471.1,369.102,469.513z"/>
		<path fill-rule="evenodd" clip-rule="evenodd" fill="#17579E" d="M831.928,473.656c1.711-0.677,2.915-2.324,4.863-2.541
			c-0.435,1.752,0.133,3.895-1.954,5.007c-1.499-0.096-2.996-0.193-4.493-0.291C830.078,474.528,830.955,474.058,831.928,473.656z"
			/>
		<path fill-rule="evenodd" clip-rule="evenodd" fill="#6992C2" d="M466.195,476.72c1.836-1.047,3.944-0.852,5.799-0.636
			c4.384,0.51,6.378-1.163,6.249-5.512c1.639,4.205,0.649,6.126-3.333,6.229C472.008,476.876,469.101,476.754,466.195,476.72z"/>
		<path fill-rule="evenodd" clip-rule="evenodd" fill="#898D91" d="M390.186,459.832c-0.864-1.164-2.193-0.527-3.276-0.847
			c1.857-1.66,4.527-0.082,6.418-1.611c0.681-0.413,1.324-0.502,1.874,0.218c0.508,0.471,1.016,0.942,1.524,1.413
			c-1.221,1.032-2.799-0.045-4.071,0.687C391.833,459.739,391.01,459.786,390.186,459.832z"/>
		<path fill-rule="evenodd" clip-rule="evenodd" fill="#858788" d="M513.24,518.246c-0.31-3.453,0.398-6.567,3.011-9.049
			C515.248,512.214,514.244,515.231,513.24,518.246z"/>
		<path fill-rule="evenodd" clip-rule="evenodd" fill="#2F639C" d="M369.102,469.513c0.442,0.764,1.216,0.858,1.977,0.978
			c-1.537,1.224-3.253,2.064-5.191,2.44C365.418,470.343,367.996,470.619,369.102,469.513z"/>
		<path fill-rule="evenodd" clip-rule="evenodd" fill="#87888A" d="M402.293,507.435c-0.773,1.107-1.423,0.655-1.498-0.332
			c-0.152-2.005-0.051-4.03-0.054-6.047C402.55,502.869,400.464,505.628,402.293,507.435z"/>
		<path fill-rule="evenodd" clip-rule="evenodd" fill="#969899" d="M395.202,457.592c-0.625-0.073-1.249-0.145-1.874-0.217
			c2.25-1.326,5.031-0.159,7.267-1.55c0.164,0.228,0.243,0.482,0.239,0.762C399.163,458.068,397.053,457.109,395.202,457.592z"/>
		<path fill-rule="evenodd" clip-rule="evenodd" fill="#5277A1" d="M378.195,465.716c0.242-0.639,0.484-1.277,0.726-1.915
			c0.816-0.938,1.87-1.376,3.083-1.479C380.991,463.74,379.857,465.024,378.195,465.716z"/>
		<path fill-rule="evenodd" clip-rule="evenodd" fill="#898A8C" d="M597.283,523.554c1.007-1.483,1.885-1.289,2.314,0.34
			c0.255,0.969,0.104,2.045,0.135,3.071C598.535,526.104,599.321,523.815,597.283,523.554z"/>
		<path fill-rule="evenodd" clip-rule="evenodd" fill="#969899" d="M501.779,504.364c1.871,2.203,0.879,3.952-0.887,5.577
			C501.087,508.065,502.344,506.36,501.779,504.364z"/>
		<path fill-rule="evenodd" clip-rule="evenodd" fill="#7199C4" d="M734.103,469.676c0.339-1.029,0.943-2.253,2.059-1.683
			c0.75,0.383,0.4,1.704-0.451,2.405C735.369,469.727,734.742,469.69,734.103,469.676z"/>
		<path fill-rule="evenodd" clip-rule="evenodd" fill="#969899" d="M392.655,459.692c1.207-1.116,2.706-0.5,4.07-0.686
			c0.756,1.191-0.23,1.324-0.974,1.603C395.066,459.128,393.665,460.073,392.655,459.692z"/>
		<path fill-rule="evenodd" clip-rule="evenodd" fill="#969899" d="M500.206,511.608c0.121,0.646,0.146,1.344,0.871,1.681
			c-0.157,0.924-0.967,1.747-1.577,1.225C498.209,513.412,499.516,512.489,500.206,511.608z"/>
		<path fill-rule="evenodd" clip-rule="evenodd" fill="#898D91" d="M386.936,458.97c-0.566,1.075-1.562,0.861-2.498,0.831
			c0.269-0.936,0.497-1.9,1.582-2.26C386.325,458.018,386.63,458.495,386.936,458.97z"/>
		<path fill-rule="evenodd" clip-rule="evenodd" fill="#BBCDE2" d="M589.841,390.151c0.834-1.234,2.011-1.608,3.433-1.366
			C592.316,389.713,591.196,390.228,589.841,390.151z"/>
		<path fill-rule="evenodd" clip-rule="evenodd" fill="#FEFEFE" d="M336.972,457.998c-2.559,0-5.124-0.117-7.674,0.033
			c-2.593,0.153-3.149-0.608-2.573-3.25c3.727-17.078,7.219-34.208,10.879-51.302c2.117-9.888,2.193-9.867,12.226-9.874
			c4.037-0.003,8.06-0.016,12.079,0.606c7.229,1.118,11.149,4.726,12.184,11.926c1.396,9.722-1.244,18.965-3.805,28.17
			c-0.753,2.703-1.881,5.331-3.088,7.873c-4.986,10.499-13.199,15.994-24.977,15.821
			C340.473,457.976,338.722,457.998,336.972,457.998z"/>
		<path fill-rule="evenodd" clip-rule="evenodd" fill="#FEFEFE" d="M732.071,416.93c7.281-0.027,11.731,4.002,11.675,12.447
			c-0.053,7.901-1.833,15.503-6.101,22.311c-3.921,6.258-9.64,9.16-17.028,8.769c-6.597-0.349-10.679-3.907-11.047-10.518
			c-0.495-8.922,1.39-17.42,6.309-25.021C719.355,419.547,724.36,416.806,732.071,416.93z"/>
		<path fill-rule="evenodd" clip-rule="evenodd" fill="#FDFEFE" d="M435.038,462.605c-5.282-0.009-8.336-1.647-9.165-4.915
			c-1.057-4.163,1.411-9.69,5.384-12.163c2.711-1.688,5.815-1.994,8.834-2.562c5.014-0.944,10.069-1.683,15.062-2.725
			c1.782-0.372,2.419-0.362,2.186,1.734C455.852,455.28,447.958,462.628,435.038,462.605z"/>
		<path fill-rule="evenodd" clip-rule="evenodd" fill="#FEFEFE" d="M619.857,445.772c0.541-6.689,2.025-14.582,6.479-21.607
			c4.123-6.508,10.107-9.506,17.788-8.813c5.864,0.529,9.722,3.782,10.259,9.599c1.037,11.201-1.199,21.744-8.406,30.725
			c-4.508,5.619-10.715,6.983-17.497,5.641C622.523,460.139,619.781,455.401,619.857,445.772z"/>
		<path fill-rule="evenodd" clip-rule="evenodd" fill="#FDFEFD" d="M671.248,561.861c-3.498-0.001-6.999-0.062-10.495,0.022
			c-1.994,0.047-2.184-0.816-1.739-2.479c2.193-8.219,12.788-13.188,20.501-9.569c3.398,1.596,5.682,7.358,4.423,10.775
			c-0.53,1.443-1.581,1.228-2.598,1.238C677.976,561.885,674.612,561.863,671.248,561.861z"/>
		<path fill-rule="evenodd" clip-rule="evenodd" fill="#0A509D" d="M830.283,454.224c4.686-1.682,7.923,1.638,7.117,7.234
			c-0.663,4.612-3.35,8.027-6.456,11.217c-1.929,4.262-5.444,2.988-8.731,2.505C823.241,467.555,826.133,460.647,830.283,454.224z"
			/>
		<path fill-rule="evenodd" clip-rule="evenodd" fill="#476280" d="M822.213,475.179c3.354,0.707,6.211-0.314,8.731-2.504
			c0.327,0.326,0.655,0.653,0.983,0.98c-0.527,0.726-1.056,1.452-1.584,2.177C827.62,475.78,824.804,476.895,822.213,475.179z"/>
		<path fill-rule="evenodd" clip-rule="evenodd" fill="#FEFEFE" d="M595.638,522.033c-2.308,2.285-5.081,3.258-8.329,3.192
			c-5.098-0.104-6.92-2.124-5.563-7.151c2.006-7.425,6.455-13.127,13.227-16.923c10.482-2.286,10.309,1.714,7.558,9.782
			C601.095,515.146,598.79,518.864,595.638,522.033z"/>
		<path fill-rule="evenodd" clip-rule="evenodd" fill="#FDFDFD" d="M784.172,515.706c-1.186,1.615-2.312,3.278-3.566,4.837
			c-2.592,3.219-5.864,4.931-10.136,4.69c-4.759-0.266-6.54-2.392-5.295-7.13c1.929-7.35,6.519-12.773,12.82-16.847
			c0.135,0.004,0.268,0.018,0.401,0.009c2.836-0.223,6.187-2.279,8.337,0.459c2.339,2.977,0.343,6.395-0.786,9.514
			C785.402,512.745,784.767,514.219,784.172,515.706z"/>
		<path fill-rule="evenodd" clip-rule="evenodd" fill="#FEFEFE" d="M683.933,505.385c1.856-1.285,3.447-2.962,5.617-3.782
			c6.826-2.58,13.602,1.878,14.383,9.438c0.366,3.541-0.382,6.9-1.52,10.21c-0.582,1.081-0.57,2.487-1.766,3.233
			c-0.219,0.272-0.438,0.543-0.657,0.814c-5.367,0.723-10.731,0.85-16.092-0.073c-4.643-2.677-5.835-6.065-4.292-11.831
			C680.416,510.362,682.23,507.914,683.933,505.385z"/>
		<path fill-rule="evenodd" clip-rule="evenodd" fill="#868889" d="M683.897,525.226c5.363,0.268,10.727,0.475,16.092,0.074
			c0.018,0.319,0.033,0.639,0.049,0.959c-4.161-0.01-8.321,0.021-12.479-0.054C686.294,526.184,684.81,526.678,683.897,525.226z"/>
		<path fill-rule="evenodd" clip-rule="evenodd" fill="#868889" d="M700.646,524.484c0.588-1.078,1.177-2.155,1.766-3.233
			C702.544,522.724,702.398,524.042,700.646,524.484z"/>
	</g>
</g>
</svg>
