<?xml version="1.0" encoding="utf-8"?>
<!-- Generator: Adobe Illustrator 24.2.3, SVG Export Plug-In . SVG Version: 6.00 Build 0)  -->
<svg version="1.1" id="Layer_1" xmlns="http://www.w3.org/2000/svg" xmlns:xlink="http://www.w3.org/1999/xlink" x="0px" y="0px"
	 viewBox="0 0 841.89 595.28" style="enable-background:new 0 0 841.89 595.28;" xml:space="preserve">
<style type="text/css">
	.st0{fill:#009949;}
	.st1{fill:#EC1D25;}
	.st2{fill:none;stroke:#FAED25;stroke-width:2.0623;stroke-miterlimit:10;}
	.st3{fill:#FAED25;}
	.st4{fill:#07A74D;}
</style>
<g>
	<g>
		<g>
			<g>
				<path class="st0" d="M227.48,407.19c-39.15,0-75.95-15.25-103.64-42.93c-27.68-27.68-42.93-64.49-42.93-103.64
					c0-39.15,15.25-75.95,42.93-103.64c27.68-27.68,64.49-42.93,103.64-42.93s75.95,15.25,103.64,42.93
					c27.68,27.68,42.93,64.49,42.93,103.64s-15.25,75.95-42.93,103.64C303.43,391.94,266.63,407.19,227.48,407.19z M227.48,117.12
					c-79.13,0-143.51,64.38-143.51,143.51c0,79.13,64.38,143.51,143.51,143.51s143.51-64.38,143.51-143.51
					C370.99,181.49,306.61,117.12,227.48,117.12z"/>
			</g>
		</g>
		<g>
			<circle class="st1" cx="227.48" cy="260.62" r="97.34"/>
		</g>
		<g>
			<path class="st2" d="M152.14,353.42"/>
		</g>
		<g>
			<g>
				<path class="st0" d="M193.14,369.62l-3.68-3.35c-11.84-4.26-22.96-10.55-32.73-18.5l2.2,3.95c0.18,0.23,0.37,0.46,0.56,0.67
					c0.43,1.03,1.03,1.91,1.77,2.63c0.21,0.2,0.58,0.5,1.1,0.91c0.54,0.39,1.24,0.87,2.1,1.46c0.66,0.45,1.22,0.89,1.67,1.34
					c0.46,0.44,0.84,0.85,1.1,1.29c0.53,0.86,0.66,1.73,0.38,2.62c-1.79-0.05-3.24-0.1-4.25-0.25c-1.02-0.14-1.65-0.29-1.88-0.44
					c-0.47-0.3-0.85-0.91-1.14-1.8c-0.14-0.53-0.12-1.05,0.08-1.59l-3.82-0.91c0.46,1.53,0.94,2.8,1.42,3.8
					c0.48,1,1.01,1.67,1.5,2.09c0.41,0.5,1.25,1.16,2.53,1.99c0.53,0.32,0.94,0.55,1.24,0.71c0.55,0.28,1.55,0.48,2.97,0.6
					c0.7,0.07,1.52,0.09,2.45,0.07c0.93-0.01,1.95-0.05,3.07-0.13c1.07-0.05,2.1,0.13,3.09,0.61c0.7,0.34,1.38,0.85,2.05,1.52
					c0.67,0.69,1.05,1.15,1.09,1.51l-2.73,6.04c1.23,1.35,2.48,2.77,3.79,4.1l5.65-14c1.39,0.53,2.77,1.09,4.17,1.6L193.14,369.62z
					 M178.95,368.4c-0.85-1.05-1.59-2-2.33-2.71c-0.73-0.72-1.44-1.24-2.12-1.57c-0.43-0.23-1.64-0.56-3.65-1l0.01-0.03
					c0.56-1.02,0.1-2.3-1.25-3.97l1.33,0.79c0.44,0.27,0.9,0.49,1.35,0.74l2.72,1.47c0.91,0.48,1.85,0.91,2.77,1.37
					c0.93,0.44,1.84,0.92,2.79,1.32L178.95,368.4z"/>
			</g>
			<g>
				<path class="st0" d="M220.67,374.65c-1.51-0.78-3-1.49-4.46-2.35c-5.37-0.5-10.69-1.45-15.92-2.76
					c-5.23-1.31-10.37-2.97-15.36-5l3.59,3.53c6.18,2.24,12.55,3.94,19.02,5.08l-0.08,0.45c-6.48-0.26-13.31-0.48-20.68-0.94
					c1.27,1.46,2.59,2.91,3.94,4.38c1.49,0.49,2.92,1.01,4.29,1.6c0.68,0.29,1.36,0.59,2.03,0.87c0.67,0.3,1.32,0.61,1.96,0.94
					c0.53,0.27,1.03,0.55,1.51,0.83c0.48,0.27,0.94,0.53,1.37,0.8c0.86,0.54,1.61,1.1,2.26,1.69c0.11,0.09,0.43,0.42,0.99,1
					c0.56,0.58,1.36,1.35,2.42,2.38l2.56,1.4l1.98-14.7c1.42,0.18,2.85,0.32,4.28,0.48c0.36,0.04,0.71,0.08,1.07,0.11l1.07,0.07
					L220.67,374.65z M199.29,384.34c0.9-0.23,1.27-0.67,1.09-1.22c-0.15-0.43-0.61-0.9-1.39-1.36c-0.77-0.46-1.64-0.81-2.61-1.05
					c-1.11-0.25-2.09-0.39-2.96-0.29c-0.87,0.09-1.38,0.36-1.5,0.8c-0.13,0.46,0.17,0.99,0.94,1.6c0.38,0.3,0.83,0.58,1.34,0.82
					c0.51,0.25,1.09,0.42,1.73,0.58C197.26,384.53,198.38,384.58,199.29,384.34z M205.9,382.55c-1.16-1.08-2.61-2.14-4.34-3.16
					c-0.87-0.5-1.79-1.08-2.79-1.6c-0.5-0.27-1.02-0.53-1.55-0.8c-0.27-0.13-0.54-0.26-0.82-0.39c-0.27-0.14-0.55-0.28-0.83-0.43
					c0.96,0.02,1.94-0.03,2.9-0.04c0.96-0.01,1.92,0,2.87,0.02c1.91,0,3.81,0.01,5.69,0.1L205.9,382.55z"/>
			</g>
			<g>
				<path class="st0" d="M246.32,378.98c-0.68,0.1-1.45,0.26-2.3,0.5c-1.43,0.73-2.13,1.39-2.06,2.01c0.07,0.55,0.66,0.97,1.78,1.2
					c1.13,0.24,2.38,0.27,3.74,0.07c1.92-0.35,3.42-0.96,4.5-1.81c0.99-0.81,1.38-1.62,1.21-2.4c-0.08-0.37-0.28-0.75-0.6-1.15
					c-0.88-1.01-2.55-1.8-4.96-2.32c-1.3-0.25-2.61-0.47-3.93-0.53c-0.66-0.03-1.32-0.03-1.99,0c-0.67,0.02-1.35,0.05-2.03,0.12
					l-0.05-0.45c6.14-0.65,12.23-1.8,18.19-3.43c-1.64-0.26-3.24-0.48-4.85-0.83c-6.82,1.58-13.79,2.53-20.8,2.83
					c-7.01,0.27-14.04-0.08-20.97-1.09c1.4,0.92,2.85,1.7,4.32,2.55c6.5,0.67,13.07,0.8,19.59,0.37l0.04,0.63
					c-6.84,1.4-13.2,2.69-19.18,4.17c0.84,0.57,1.7,1.06,2.57,1.58l2.63,1.55c0.77,0.1,1.52,0.15,2.27,0.24
					c0.74,0.08,1.47,0.18,2.18,0.29c0.71,0.11,1.42,0.25,2.1,0.37c0.69,0.12,1.36,0.25,2.03,0.4c1.14,0.27,2.53,0.82,4.19,1.46
					c1.27,0.49,2.2,0.93,2.76,1.32c0.26,0.19,0.81,0.74,1.66,1.57l2.82,0.78l-1.24-11.75c0.6-0.07,1.19-0.11,1.76-0.12
					c0.57-0.03,1.13-0.04,1.67-0.02c1.09,0.04,2.12,0.18,3.1,0.44c1.48,0.34,2.38,0.79,2.67,1.37
					C248.36,378.74,247.42,378.83,246.32,378.98z M235.74,383.79c-0.66-0.35-1.38-0.68-2.15-0.99c-0.38-0.15-0.78-0.29-1.19-0.44
					c-0.41-0.15-0.84-0.3-1.27-0.45c-1.75-0.58-3.71-1.02-5.89-1.53c1.11-0.3,1.94-0.52,2.5-0.69c0.56-0.18,0.85-0.27,0.87-0.28
					c0.91-0.25,1.93-0.5,3.05-0.75c1.13-0.24,2.35-0.59,3.69-0.88L235.74,383.79z"/>
			</g>
			<g>
				<path class="st0" d="M252.99,369.94c-0.75,0.12-1.65,0.3-2.72,0.56c-1.07,0.22-2.32,0.48-3.72,0.81l2.41,0.54
					c0.81,0.18,1.63,0.37,2.44,0.5c0.47-0.11,0.81-0.18,1.03-0.23c0.92-0.21,1.78-0.3,2.6-0.28c0.81-0.01,1.58,0.09,2.3,0.31
					c0.6,0.17,0.97,0.54,1.12,1.08l2.86,10.41c1.8,0.27,3.6,0.43,5.42,0.59l-4.67-14.71c1.46-0.43,2.89-0.96,4.32-1.47
					c1.44-0.48,2.85-1.08,4.26-1.64c-1.66-0.06-3.29-0.09-4.93-0.24l-2.26,0.8c-0.75,0.27-1.52,0.48-2.28,0.73
					c-0.34-0.07-0.6-0.14-0.8-0.2c-0.7-0.56-1.13-0.96-1.29-1.21c-0.86-0.03-1.74-0.13-2.6-0.21c0.42,1.54,0.93,2.92,1.54,4.14
					c-0.67-0.27-1.41-0.43-2.25-0.47c-0.42-0.02-0.86,0-1.32,0.03C253.99,369.81,253.5,369.86,252.99,369.94z"/>
			</g>
			<g>
				<path class="st0" d="M295.01,352.78c-1.67,0.35-3.3,0.71-4.94,1.02c-8.95,6.03-18.77,10.73-29.06,13.95
					c0.83,0.09,1.67,0.19,2.5,0.26l2.52,0.16c6.18-2.22,12.18-4.96,17.9-8.21l0.23,0.4c-5.15,3.93-10.57,8.1-16.53,12.45
					c0.96,0.16,1.93,0.35,2.9,0.48l2.93,0.38c1.48-0.52,2.9-1.06,4.33-1.49c0.71-0.22,1.43-0.4,2.13-0.6c0.7-0.2,1.4-0.38,2.1-0.54
					c2.33-0.5,4.33-0.8,6.07-0.73c0.14,0,0.6,0.05,1.4,0.14c0.8,0.09,1.91,0.18,3.39,0.3c0.95-0.18,1.91-0.35,2.87-0.56l-7.86-12.59
					l3.61-2.35L295.01,352.78z M284.71,373.86c0.54-0.77,0.55-1.31,0.06-1.64c-0.4-0.25-1.04-0.3-1.93-0.16
					c-0.89,0.14-1.78,0.44-2.67,0.87c-1.04,0.47-1.86,1.02-2.47,1.65c-0.61,0.64-0.83,1.17-0.65,1.58c0.19,0.44,0.76,0.64,1.74,0.62
					c0.97-0.03,2.07-0.3,3.27-0.87C283.28,375.32,284.17,374.63,284.71,373.86z M288.67,368.28c-1.59-0.1-3.37,0.02-5.36,0.34
					c-1.01,0.13-2.07,0.32-3.17,0.55c-0.55,0.12-1.12,0.25-1.7,0.38c-0.59,0.12-1.19,0.26-1.8,0.4c2.97-2.49,5.87-4.95,8.87-7.24
					L288.67,368.28z"/>
			</g>
		</g>
		<g>
			<g>
				<path class="st0" d="M102.38,243.15c-0.12,0.86-0.19,1.68-0.16,2.44c0.05,0.76,0.16,1.47,0.33,2.13c0.31,1.05,0.85,2,1.65,2.85
					c0.79,0.85,1.57,1.29,2.33,1.34c1.11,0.08,2.06-0.62,2.85-2.06c0.2-0.32,0.32-0.69,0.36-1.1c0.06-0.54-0.13-1.47-0.47-2.79
					c-0.31-1.32-0.45-2.12-0.41-2.4c0.08-0.58,0.24-0.85,0.48-0.82c0.33,0.05,0.93,0.91,1.8,2.52c0.46,0.88,0.84,1.6,1.17,2.17
					c0.32,0.57,0.55,1,0.69,1.28l1.6-1.61c0.55-0.53,1.12-1.05,1.68-1.56c-1.13-1.94-2.17-3.46-3.11-4.48
					c-0.9-1.02-1.73-1.54-2.49-1.54c-1.07,0.02-2,0.44-2.65,1.29c-0.66,0.85-1.11,2.13-1.35,3.81c-0.09,0.66-0.16,1.25-0.13,1.78
					c-1.05-1.18-1.36-2.92-1.04-5.19c0.08-0.49,0.2-0.99,0.42-1.48c0.23-0.49,0.52-0.97,0.88-1.44c0.65-0.85,1.6-1.6,2.84-2.21
					c1.24-0.61,2.24-0.82,2.98-0.66l9.5,2.31c1.2-0.96,2.44-1.88,3.64-2.78l-18.58-4.66l0.46-1.87c0.17-0.62,0.36-1.23,0.54-1.85
					l1.09-3.7c-1.15,0.95-2.3,1.92-3.46,2.91c-0.2,0.63-0.38,1.24-0.56,1.84c-0.14,0.61-0.28,1.21-0.42,1.8
					c-0.18,0.44-0.33,0.69-0.44,0.74c-0.84,0.32-1.44,0.25-1.82-0.22l-2.46,2.41c2.58,0.57,4.5,0.92,5.76,1.05
					c0.93,0.1,1.73,0.19,2.39,0.26c-1.54,0.39-2.75,1.39-3.77,2.96c-0.5,0.79-0.95,1.72-1.33,2.8
					C102.84,240.55,102.57,241.78,102.38,243.15z"/>
			</g>
			<g>
				<path class="st0" d="M115.3,222.79c-0.72,0.19-1.38,0.2-1.96,0c-0.63-0.21-1.15-0.81-1.56-1.82c-0.4-1.01-0.39-2.14,0.04-3.38
					c0.55-1.42,1.51-2.55,2.84-3.36c0.79-0.49,1.54-0.78,2.25-0.87c0.73-0.09,1.42,0.01,2.08,0.3l9.19,3.99
					c1.32-0.7,2.62-1.38,3.9-2.03l-16.86-7.97c0.51-1.19,1.14-2.32,1.72-3.48l0.89-1.73c0.29-0.58,0.59-1.15,0.92-1.71
					c-0.68,0.34-1.34,0.7-1.99,1.06l-1.98,1.11c-0.48,0.96-1,1.91-1.46,2.88c-0.6,0.52-1.02,0.85-1.27,0.97
					c-0.25,0.13-0.63,0.15-1.14,0.08c-0.3-0.02-0.86,0.19-1.68,0.64c-0.48,0.32-0.95,0.62-1.41,0.91c2.49,1.25,4.23,2.01,5.23,2.29
					c0.89,0.24,1.68,0.45,2.38,0.63c-1.9,0.39-3.34,1.12-4.4,2.09c-0.17,0.17-0.62,0.65-1.35,1.45c-0.36,0.48-0.72,1.09-0.99,1.85
					c-0.2,0.59-0.39,1.27-0.57,2.06c-0.23,1.06-0.31,2.05-0.23,2.98c0.07,0.93,0.36,1.81,0.76,2.6c0.74,1.42,1.82,2.31,3.21,2.72
					c1.37,0.4,2.71,0.19,4-0.57c0.72-0.41,1.3-0.98,1.89-1.67c0.57-0.69,1.07-1.53,1.49-2.52c0.25-0.58,0.42-1.16,0.52-1.75
					c0.11-0.59,0.17-1.17,0.14-1.77c-0.07-1.35-0.51-2.2-1.33-2.53c-0.29-0.12-0.62-0.14-1.01-0.08c-1.23,0.2-2.15,1.03-2.72,2.48
					c-0.65,1.86-0.42,2.99,0.68,3.36c0.2,0.07,0.43,0.15,0.67,0.23C116.02,222.51,115.71,222.69,115.3,222.79z"/>
			</g>
			<g>
				<path class="st0" d="M134.72,177.1c-1.03,0.36-1.92,0.91-2.79,1.55c-0.86,0.65-1.66,1.41-2.39,2.29
					c-1.34,1.74-2.25,3.54-2.74,5.33c-0.43,1.83-0.42,3.67,0.02,5.48c0.13,0.52,0.35,0.87,0.64,1.07c0.39,0.27,0.93,0.27,1.61,0
					c0.68-0.26,1.17-0.7,1.49-1.31c0.7-1.82,1.17-2.76,1.28-2.9c0.45-0.61,1.05-0.63,1.8-0.05c0.3,0.23,0.45,0.47,0.43,0.72
					c-0.01,1.14-0.06,2.24-0.01,3.38c0.6-0.52,1.26-1,1.9-1.49l1.91-1.45c0.02-1.73,0.17-3.41,0.3-5.15l0.23-2.62
					c0.08-0.88,0.21-1.73,0.32-2.6c0.99-0.33,2.27-0.24,3.83,0.3l6.53,6.67c0.88-0.11,1.63-0.25,2.32-0.37
					c0.69-0.12,1.28-0.25,1.78-0.4l-12.95-13.08c0.9-0.88,1.79-1.77,2.7-2.63l2.81-2.51c-1.44,0.2-2.89,0.42-4.37,0.65
					c-0.28,0.17-0.81,0.68-1.62,1.46c-0.49,0.48-0.87,0.85-1.13,1.11l-0.77,0.31c-0.36,0.05-0.78-0.1-1.25-0.47
					c-0.16-0.01-0.31-0.02-0.43-0.03c-0.9,0.31-1.75,0.67-2.62,1.03l4.88,4.13l1.59,1.01C138.32,176.23,136.55,176.42,134.72,177.1z
					 M130.31,186.85c-0.1-0.74,0-1.53,0.31-2.37c0.31-0.84,0.81-1.74,1.59-2.62c0.69-0.81,1.63-1.44,2.81-1.87
					c-0.23,1.98-0.47,3.89-0.61,5.82C132.93,185.16,131.56,185.51,130.31,186.85z"/>
			</g>
			<g>
				<path class="st0" d="M154.24,186.51c-1.05-1.07-1.9-1.73-2.56-1.99c-0.38-0.16-0.87-0.28-1.47-0.35
					c-0.6-0.07-1.32-0.09-2.13-0.03c-0.7-0.05-1.83,0.25-3.41,0.94c-0.42,0.25-0.83,0.51-1.24,0.79c-0.39,0.29-0.77,0.6-1.14,0.92
					c-0.75,0.64-1.46,1.34-2.14,2.08c-0.17,0.19-0.34,0.37-0.5,0.55c-0.15,0.18-0.3,0.36-0.45,0.54c-0.29,0.35-0.57,0.67-0.82,0.97
					c-0.51,0.6-0.96,1.12-1.34,1.54c-0.77,0.84-1.22,1.36-1.41,1.5c-1.66,1.17-3.03,1.42-4.07,0.71c-0.2-0.13-0.36-0.39-0.5-0.78
					c-1.4,0.51-2.18,0.85-2.28,1.03c-0.09,0.14-0.11,0.3-0.04,0.46c0.2,0.26,0.39,0.44,0.57,0.56c0.7,0.58,1.2,0.97,1.5,1.17
					c1.08,0.71,2.26,0.97,3.61,0.87c1.18-0.1,2.36-0.6,3.55-1.51c1.07-0.83,2.08-1.79,2.93-2.96c1.46-2.11,2.68-3.52,3.42-4.42
					c0.73-0.87,1.44-1.56,2.15-2.01c0.7-0.47,1.36-0.76,1.98-0.86c0.27-0.01,1.1,0.08,2.49,0.29
					C152.3,186.72,153.43,186.75,154.24,186.51z"/>
			</g>
			<g>
				<path class="st0" d="M159.1,162.94c-0.25,0-0.51,0.08-0.75,0.27c-0.17,0.18-0.47,0.59-0.91,1.21c-1.28,1.91-2.13,2.98-2.55,3.33
					c-0.71,0.58-1.24,0.64-1.6,0.2c-0.27-0.33-0.38-1.17-0.32-2.52c0.06-1.36,0.34-2.2,0.75-2.6c1.11,0.07,1.73,0.12,1.89,0.15
					c0.4,0.04,0.92-0.02,1.56-0.18c0.32-0.08,0.67-0.19,1.04-0.32c0.38-0.12,0.8-0.26,1.25-0.42c0.89-0.33,1.78-0.71,2.66-1.16
					c0.44-0.22,0.88-0.46,1.32-0.71c0.45-0.23,0.91-0.48,1.36-0.74c0.12,2.01,0.61,3.62,1.4,4.87c0.49,0.76,1.35,1.65,2.57,2.69
					c0.97,0.83,1.94,1.67,2.91,2.53c0.17,0.09,0.6,0.03,1.29-0.2c0.61-0.18,1.06-0.35,1.35-0.53c0.16-0.1,0.3-0.31,0.44-0.62
					c-2.1-1.21-3.52-2.33-4.22-3.5c-0.32-0.53-0.62-1.17-0.91-1.91c-0.44-0.81-0.6-1.96-0.44-3.45c0.16-1.36,0.54-2.61,1.15-3.76
					c-1.05-0.13-2.04-0.24-2.96-0.34c-0.92-0.1-1.74-0.13-2.51-0.17c-1.86,1.78-3.12,2.85-3.75,3.37c-0.67,0.51-1.67,1.02-3.02,1.55
					c-1.44,0.58-2.23,0.78-2.46,0.46c-0.04-0.06-0.03-0.17,0.03-0.33c0.33-0.58,0.62-1,0.87-1.27c4.87-3.41,10.01-6.42,15.3-9.11
					c-1.49-0.22-2.96-0.35-4.46-0.48l-2.01,1.1l-1,0.55l-0.98,0.59l-3.91,2.38c-2.54,1.7-5.1,3.36-7.52,5.23
					c-4.89,3.65-9.56,7.61-13.86,11.96c1.5-0.3,2.98-0.59,4.44-0.85c1.17-1.08,2.38-2.13,3.56-3.2l0.89-0.8l0.93-0.76l1.86-1.51
					c-0.07,0.31-0.14,0.54-0.19,0.7c-0.44,2.11-0.27,3.56,0.45,4.42c0.23,0.27,0.52,0.53,0.86,0.77c1.19,0.78,2.79,0.92,4.75,0.45
					c0.44-0.16,0.86-0.36,1.27-0.58c0.41-0.21,0.81-0.45,1.18-0.73c0.88-0.65,1.81-1.68,2.86-3.09c0.11-0.13,0.21-0.23,0.29-0.28
					c0.22-0.15,0.47-0.16,0.73-0.04c0.27,0.12,0.47,0.28,0.6,0.48c0.37,0.54,0.1,1.31-0.72,2.4c-0.6,0.83-1.33,1.6-2.19,2.29
					c-0.51,0.43-1.12,0.74-1.78,1.02c-0.66,0.27-1.41,0.46-2.26,0.56c-1.43,0.16-2.73,0.06-3.87-0.29
					c-0.44-0.15-1.28-0.56-2.54-1.23c-0.89-0.45-1.74-1.2-2.54-2.27c-0.34,0.05-1.19,0.36-2.57,0.95c1.06,1.16,2.02,2.16,2.89,3.01
					c0.87,0.85,1.99,1.55,3.35,2.12c1.43,0.6,2.8,0.92,4.11,0.96c1.51,0.08,2.94-0.04,4.23-0.43c0.65-0.19,1.27-0.45,1.87-0.77
					c0.62-0.29,1.21-0.65,1.79-1.08c1.26-0.93,2.15-2.07,2.77-3.31c0.61-1.27,0.78-2.52,0.52-3.75c-0.11-0.47-0.29-0.89-0.54-1.27
					c-0.74-1.13-2.1-1.84-4.15-2.06c-0.8-0.09-1.46-0.07-1.95,0.06L159.1,162.94z"/>
			</g>
			<g>
				<path class="st0" d="M167.17,149.38c-1.17,0.51-2.82,1.39-4.8,2.83c1.51,0.03,2.98,0.06,4.49,0.19c0.35-0.19,0.6-0.33,0.75-0.41
					c1.35-0.73,2.71-0.93,4.07-0.5c0.56,0.17,1,0.58,1.33,1.21l6.09,12.04c1.34,0.33,2.66,0.66,3.95,1.01l-8.2-17.47
					c1.1-0.57,2.26-1.02,3.4-1.52c1.14-0.48,2.27-1,3.43-1.45c-1.46-0.33-2.92-0.57-4.41-0.85c-1.24,0.54-2.5,1.05-3.7,1.66
					c-0.32-0.08-0.57-0.16-0.77-0.22c-0.79-0.65-1.3-1.11-1.52-1.4l-2.45-0.08c0.9,1.78,1.83,3.37,2.77,4.76
					c-0.66-0.28-1.38-0.43-2.11-0.39C168.75,148.84,167.97,149.04,167.17,149.38z"/>
			</g>
			<g>
				<path class="st0" d="M211.41,137.63l-2.15-1l-2.17-0.9c-5.86,0.89-11.63,2.34-17.29,4.07c-1.41,0.46-2.82,0.9-4.23,1.38
					l-4.16,1.56c-1.4,0.49-2.74,1.13-4.11,1.7l-2.04,0.88c-0.68,0.28-1.34,0.64-2.01,0.95c0.75,0.1,1.49,0.19,2.24,0.31l2.24,0.39
					c5.34-2.39,10.88-4.3,16.51-5.87l2.12-0.57c0.71-0.19,1.41-0.4,2.12-0.54l4.28-0.94c0.71-0.17,1.43-0.28,2.15-0.41l2.16-0.37
					l2.16-0.37C209.96,137.8,210.68,137.73,211.41,137.63z M206.48,147.21c-0.14-0.77-0.45-1.52-0.93-2.23
					c-0.96-1.36-2.12-2.3-3.5-2.9c-0.69-0.3-1.43-0.51-2.22-0.63c-0.79-0.11-1.64-0.18-2.51-0.06c-0.99,0.12-1.82,0.27-2.47,0.45
					c-0.87,0.24-1.66,0.55-2.36,0.94c-0.69,0.42-1.28,0.91-1.79,1.47c-1.1,1.18-1.44,2.33-1.07,3.45c0.09,0.27,0.24,0.56,0.45,0.87
					c0.57,0.79,1.29,1.29,2.16,1.5c0.44,0.1,0.91,0.13,1.42,0.09c0.51-0.05,1.06-0.16,1.67-0.32c2.78-0.75,3.95-2.07,3.53-3.95
					c-0.16-0.65-0.5-1.17-1.03-1.57c0.32-0.14,0.58-0.23,0.77-0.28c1.07-0.25,2.08-0.05,3.01,0.57c0.82,0.55,1.3,1.22,1.47,2.01
					c0.21,0.98-0.2,1.96-1.18,2.93c-1.38,1.29-2.72,2.21-4.12,2.58c-0.79,0.21-1.56,0.35-2.32,0.41c-0.76,0.08-1.49,0.11-2.23,0.04
					c-1.47-0.11-2.92-0.57-4.35-1.26c-1.22-0.56-2.53-1.35-3.94-2.35c-0.55-0.42-1.75-1.32-3.59-2.71l-2.83,0.4
					c0.94,0.91,1.97,1.84,3.1,2.8c0.56,0.48,1.15,0.96,1.76,1.46c0.61,0.5,1.25,1.02,1.9,1.55c0.86,0.73,2.19,1.47,3.96,2.26
					c0.62,0.28,1.16,0.5,1.63,0.69c0.48,0.2,0.88,0.34,1.21,0.44c0.97,0.29,2.05,0.4,3.24,0.33c1.19-0.1,2.31-0.2,3.33-0.49
					c0.8-0.22,1.6-0.54,2.39-0.97c0.8-0.41,1.62-0.88,2.44-1.48c1.18-0.86,2.03-1.83,2.53-2.82
					C206.53,149.44,206.69,148.36,206.48,147.21z"/>
			</g>
			<g>
				<path class="st0" d="M222.57,141.15c1.09,0.66,1.85,1.06,2.3,1.19l-0.05-0.07c0.33,0.21,0.83,0.39,1.5,0.54
					c0.34,0.08,0.71,0.15,1.13,0.22c0.42,0.08,0.88,0.17,1.39,0.25c1.4-0.99,2.16-1.53,2.23-1.62c0.84-0.67,1.29-1.33,1.31-2
					c0.01-0.38-0.22-1.06-0.72-2.05c-0.53-1.11-1.02-1.67-1.45-1.68l-0.02,0.71c3.41,0.02,6.81,0.33,10.2,0.6
					c-1.18-0.95-2.38-1.86-3.61-2.79c-11.43-0.89-22.96-0.1-34.22,2.09c1.46,0.55,2.92,1.17,4.34,1.77l2.43-0.41l2.45-0.3l2.45-0.3
					c0.41-0.05,0.82-0.1,1.23-0.14l1.23-0.09c1.64-0.11,3.28-0.25,4.93-0.35l4.93-0.12c0.54-0.01,0.89,0.07,1.07,0.27
					c0.5,0.56,0.74,1.02,0.74,1.37c-0.01,1.1-0.64,1.79-1.88,2.21c-0.63-0.48-1.88-1.11-3.81-1.87c-0.37-0.15-0.74-0.28-1.11-0.39
					c-0.38-0.1-0.75-0.17-1.14-0.22c-0.77-0.11-1.55-0.13-2.34-0.07c-2.8,0.17-4.41,1.33-4.81,3.19c-0.2,0.96,0.12,1.74,0.94,2.35
					c0.82,0.61,1.89,0.81,3.23,0.74c0.87-0.06,1.64-0.41,2.31-1.04c0.67-0.63,1-1.28,0.96-1.95c-0.02-0.31-0.14-0.59-0.36-0.83
					C220.98,140.47,221.73,140.73,222.57,141.15z"/>
			</g>
			<g>
				<path class="st0" d="M227.68,143.1c-0.1,0-0.08,0.15,0.05,0.46c0.24,0.48,0.35,0.82,0.35,1.01l-0.03,6.6
					c-0.16-0.12-0.27-0.21-0.33-0.26c-0.85-0.57-2.16-0.81-3.92-0.77c-0.29,0.01-0.76,0.02-1.43,0.03c-3.1,0.44-5.05,0.5-5.89,0.14
					c-0.97-0.38-1.52-1.15-1.65-2.32c-0.06-0.58,0.05-1.34,0.35-2.28l-1.58-0.59c-0.38-0.1-0.67,0.05-0.86,0.43
					c-0.58,1.24-0.79,2.38-0.65,3.42c0.17,1.25,0.85,2.38,1.98,3.39c0.61,0.6,1.6,1,2.96,1.22c1.21,0.27,2.35,0.35,3.46,0.22
					c0.23-0.03,0.55-0.08,0.95-0.16c0.4-0.08,0.9-0.18,1.48-0.27c1.05-0.19,1.87-0.29,2.45-0.31c1.33-0.04,2.35,0.25,3.02,0.93
					c0.49,0.58,0.84,1.08,1.08,1.49l1.64,1.22l0.35-10.3c0.07-2.09,0.05-3.26-0.08-3.5c-0.73-1.58-2.22-2.44-4.43-2.44
					c-1.52,0.04-2.52,0.24-2.99,0.61c-1.02,0.45-1.79,0.8-2.33,1.06c-1.11,0.99-1.79,1.64-2.07,1.97c-0.56,0.73-0.8,1.51-0.73,2.34
					c0.03,0.45,0.16,0.91,0.37,1.39c0.21,0.47,0.71,0.87,1.49,1.2c0.39,0.16,0.77,0.28,1.15,0.34c0.38,0.07,0.75,0.12,1.12,0.11
					c0.93-0.02,1.76-0.26,2.51-0.72c0.75-0.46,1.13-1.03,1.12-1.72c0-0.5-0.24-0.93-0.7-1.3c-0.47-0.37-1.07-0.54-1.8-0.53
					c-0.13,0-0.3,0.01-0.5,0.01c0.15-0.35,0.4-0.68,0.72-0.96c0.76-0.51,1.34-0.85,1.75-1.03c0.54-0.15,0.91-0.23,1.11-0.24
					l-0.05-0.03C227.3,143.01,227.49,143.05,227.68,143.1z"/>
			</g>
			<g>
				<path class="st0" d="M250.88,138.81c-1.06-1.03-2.14-2.07-3.25-3.12c-0.76-0.15-1.53-0.24-2.29-0.34l-2.3-0.29l-0.43-1.49
					c-0.27-0.85-0.84-1.83-1.73-2.93c-0.9-1.06-1.85-1.89-2.84-2.49c-0.9-0.55-1.75-1-2.56-1.37c-0.4-0.18-0.79-0.35-1.16-0.48
					c-0.37-0.12-0.74-0.23-1.08-0.31c-1.52-0.34-2.92-0.6-4.17-0.77c-0.63-0.09-1.22-0.17-1.78-0.2c-0.56-0.03-1.08-0.03-1.57-0.02
					c-1.35,0.03-2.69,0.16-4.01,0.38c-0.66,0.1-1.31,0.26-1.96,0.46c-0.65,0.19-1.29,0.4-1.93,0.64c-2.2,0.83-3.22,1.78-3.12,2.84
					c0.11,1.09,0.93,1.87,2.44,2.34c1.51,0.48,2.98,0.7,4.42,0.75c0.11,0.02,1.74,0.04,4.87,0.06c1.33-0.01,2.32,0.17,2.98,0.33
					c0.66,0.18,0.98,0.4,0.98,0.68c0,0.26-0.81,0.78-2.36,1.55l4.82,0.12c0.28-0.52,0.42-0.99,0.44-1.42
					c0.04-2.34-2.05-3.73-6.31-4.02l-0.68-0.02c-1.03-0.04-2.12-0.06-3.25-0.07c-0.57,0-1.14-0.01-1.73-0.01
					c-0.59,0-1.19,0.05-1.8,0.07c-1.39,0.08-2.1-0.05-2.13-0.38c-0.03-0.45,0.96-0.88,3-1.29c1.51-0.28,2.93-0.38,4.23-0.42
					c3.04-0.13,5.63,0.27,7.74,0.83c2.11,0.54,3.73,1.5,4.87,2.61c1.29,1.27,1.96,2.17,2.06,2.7l0.24,0.95l-3.73-0.28l-1.86-0.14
					l-1.87-0.05c0.68,0.44,1.35,0.86,2.01,1.31l1.96,1.4l3.04,0.23l-1.5,16.23c0.99,0.88,1.95,1.89,2.88,2.84l2.29-18.65
					c1.36,0.18,2.73,0.32,4.09,0.54L250.88,138.81z"/>
			</g>
			<g>
				<path class="st0" d="M286.7,151.59c-0.69-1.3-1.42-2.6-2.16-3.92c-8.49-4.3-17.47-7.68-26.73-9.92
					c1.03,1.07,2.01,2.24,2.97,3.37c5.47,1.45,10.78,3.45,15.99,5.65l-0.24,0.56c-0.32-0.06-0.66-0.13-0.99-0.2
					c-0.34-0.06-0.7-0.1-1.05-0.15c-0.72-0.09-1.47-0.17-2.24-0.24c-0.78-0.07-1.58-0.14-2.41-0.19c-0.82-0.07-1.71-0.04-2.6-0.05
					c-1.93,0.03-4.39,0.21-7.4,0.84l1.25,2.26l0.61,1.13l0.58,1.17c1.37,0.55,2.6,1.19,3.67,1.9c1.07,0.72,1.95,1.6,2.69,2.51
					c0.73,0.92,1.31,1.9,1.72,2.96c0.39,1.09,0.63,2.25,0.7,3.47c0.32,0.99,0.62,1.98,0.91,2.95l8.17-17.4
					c1.12,0.48,2.2,1.07,3.29,1.62L286.7,151.59z M272.04,157.71c-0.48-1.33-1.22-2.54-2.17-3.76c-0.48-0.61-1.01-1.21-1.6-1.81
					c-0.3-0.3-0.6-0.61-0.93-0.89c-0.33-0.28-0.67-0.55-1.03-0.83c1.6-0.18,3.1-0.17,4.57-0.13c0.73,0.02,1.46,0.06,2.16,0.11
					c0.35,0.03,0.71,0.05,1.05,0.09c0.34,0.05,0.68,0.11,1.01,0.16L272.04,157.71z"/>
			</g>
			<g>
				<path class="st0" d="M284.34,147.58c-0.54-0.34-1.23-0.73-2.06-1.13c-0.85-0.37-1.85-0.77-3-1.2c0.82,1.27,1.65,2.5,2.41,3.78
					c0.35,0.18,0.6,0.31,0.76,0.39c1.37,0.7,2.29,1.73,2.73,3.08c0.19,0.55,0.11,1.14-0.23,1.76l-6.42,11.87
					c0.5,1.28,0.96,2.58,1.41,3.85l9.68-16.69c2.18,1.19,4.23,2.58,6.33,3.91c-0.58-1.36-1.18-2.74-1.81-4.12
					c-1.12-0.75-2.32-1.39-3.49-2.07c-0.11-0.31-0.2-0.57-0.25-0.76c0.08-1.02,0.17-1.71,0.29-2.06c-0.44-0.69-0.87-1.39-1.33-2.07
					c-0.95,1.76-1.72,3.41-2.33,4.98C286.73,149.69,285.82,148.52,284.34,147.58z"/>
			</g>
			<g>
				<path class="st0" d="M300.23,166.8c0.97-0.21,1.68-0.6,2.14-1.18c0.74-0.94,0.9-2.16,0.46-3.69c-0.43-1.56-1.43-2.8-2.87-3.83
					c-0.68-0.48-1.39-0.85-2.13-1.09c-0.74-0.24-1.54-0.32-2.34-0.3c-1.62,0.05-2.71,0.57-3.31,1.52c-0.65,1.03-0.68,2.27-0.12,3.71
					c0.27,0.73,0.68,1.35,1.15,1.97c0.48,0.62,1.06,1.17,1.76,1.67c0.93,0.66,1.72,1.06,2.37,1.2
					C298.31,167,299.26,167.02,300.23,166.8z M294.45,181.92l1.64-1.93c-0.22-2.68-0.62-4.81-0.93-6.56
					c-0.33-1.74-0.64-3.03-0.93-3.79c-0.98-2.78-1.94-5.23-2.95-7.06l-2.71,4.15c0.37,0.64,0.72,1.24,1.04,1.83
					c0.3,0.61,0.6,1.19,0.88,1.74c0.55,1.11,1.02,2.11,1.42,3.01c0.21,0.44,0.38,0.88,0.54,1.3c0.16,0.41,0.3,0.8,0.43,1.17
					c0.25,0.73,0.45,1.35,0.59,1.87l0.54,2.12C294.16,180.48,294.3,181.21,294.45,181.92z M300.06,162.6
					c-0.33,0.44-0.59,0.7-0.77,0.78c-0.4,0.13-1.11,0.09-2.14-0.11c-1.02-0.2-1.74-0.44-2.16-0.74c-0.56-0.4-0.64-0.85-0.25-1.37
					c0.51-0.7,1.19-1.02,2.05-0.97c1.34,0.1,2.33,0.37,2.93,0.8C300.39,161.47,300.5,162,300.06,162.6z"/>
			</g>
			<g>
				<path class="st0" d="M327.39,187.04c-0.03-0.78-0.09-1.54-0.17-2.3l-0.22-2.3l-1.25-1.58l-0.62-0.79l-0.66-0.76l-2.64-3.04
					l-0.66-0.76l-0.69-0.73l-1.39-1.46l-1.39-1.46l-0.7-0.73l-0.73-0.7l-2.92-2.78l-0.73-0.69l-0.76-0.66l-1.52-1.32l-1.52-1.32
					l-0.76-0.66l-0.79-0.63l-3.17-2.49c0.53,1.47,1.03,2.93,1.52,4.37c5.28,4.31,10.22,9.04,14.75,14.14l-2.24,1.99
					c0-0.18-0.01-0.36-0.03-0.53c-0.01-0.37-0.01-0.77,0-1.2c-0.16-0.85-0.63-1.69-1.38-2.55c-0.4-0.45-0.97-0.8-1.71-1.04
					c-0.74-0.24-1.37-0.34-1.92-0.28l-0.04-0.48c-0.37-1.76-1.31-3.35-2.79-4.73c-1.43-1.22-2.99-1.78-4.64-1.66
					c-1.47,0.07-2.62,0.63-3.45,1.65c-0.32,0.39-0.57,0.8-0.77,1.25c-0.5,1.19-0.48,2.5,0.08,3.91c0.55,1.42,1.5,2.64,2.74,3.87
					c1.44,1.39,2.89,1.84,4.3,1.46c0.48-0.11,0.89-0.69,1.19-1.75c0.38-1.28,0.02-2.42-1.05-3.42c-0.69-0.66-1.42-1.05-2.2-1.18
					c-0.79-0.11-1.4,0.08-1.83,0.56c-0.19,0.21-0.32,0.46-0.4,0.74c-0.65-1.01-0.67-1.88-0.03-2.62c0.5-0.57,1.24-0.79,2.23-0.64
					c0.49,0.08,0.97,0.22,1.43,0.44c0.44,0.24,0.86,0.55,1.26,0.93c1,0.95,1.59,1.93,1.77,2.92c0.08,0.25,0.14,0.85,0.1,1.85
					c-0.04,0.47-0.35,0.77-0.91,0.9l2.22,1.35c0.65-0.94,1.17-1.44,1.58-1.5c0.49-0.03,0.93,0.14,1.29,0.53
					c0.46,0.49,0.76,1.09,0.84,1.85c0.08,0.75-0.05,1.27-0.38,1.57l-7.5,6.65c0.1,1.36,0.19,2.7,0.27,4.01l14.44-12.03
					c0.81,0.93,1.54,1.93,2.31,2.89l1.14,1.45C326.66,186.04,327.04,186.53,327.39,187.04z"/>
			</g>
			<g>
				<path class="st0" d="M327.04,182.55c-0.7-1.07-1.84-2.55-3.59-4.26c0.22,1.49,0.44,2.95,0.56,4.45
					c0.24,0.31,0.42,0.53,0.53,0.67c0.95,1.21,1.35,2.52,1.18,3.93c-0.08,0.59-0.4,1.09-0.98,1.51l-10.85,8.02
					c-0.1,1.38-0.21,2.74-0.34,4.07l15.85-11.01c0.36,0.51,0.73,1,1.07,1.52l1,1.57l2.01,3.13c0.04-1.48,0.07-2.97,0.09-4.49
					l-1.1-1.71l-1.17-1.66c0.03-0.33,0.06-0.59,0.09-0.79c0.51-0.89,0.88-1.47,1.13-1.74l-0.33-2.43c-1.61,1.19-3.01,2.37-4.23,3.53
					C328.33,185.45,327.98,184.03,327.04,182.55z"/>
			</g>
			<g>
				<path class="st0" d="M340.86,210.12c0.24-1.44,0.47-2.89,0.68-4.37c-3.03-6.22-6.56-12.2-10.53-17.86
					c0.06,1.52,0.12,3,0.08,4.53c1.29,2.02,2.61,4.01,3.77,6.1c-1.97-0.71-3.74-1.02-5.39-0.91c-1.63,0.1-3.07,0.56-4.34,1.37
					c-2.93,1.86-4.28,4.57-4.51,8.12c-0.03,0.57,0.05,1.16,0.22,1.78c0.09,0.31,0.21,0.63,0.35,0.95c0.13,0.33,0.28,0.67,0.46,1.02
					c0.54,1.06,1.3,1.86,2.29,2.4c1,0.54,1.88,0.64,2.72,0.24c0.47-0.22,0.82-0.55,1.04-0.97c0.21-0.42,0.28-0.94,0.22-1.55
					c0.09-0.51-0.03-1.07-0.34-1.67c-0.24-0.46-0.57-0.89-1.01-1.28c-0.58-0.5-1.12-0.77-1.63-0.83c-0.5-0.06-0.95,0.08-1.34,0.43
					c-0.18,0.17-0.37,0.52-0.59,1.05c-0.22,0.53-0.34,0.79-0.31,0.78c-0.11,0.06-0.23-0.09-0.42-0.41c0.54,0.59,0.84,0.8,0.96,0.6
					c-0.03-0.06-0.08-0.15-0.15-0.29c-0.42-0.83-0.51-1.81-0.16-3.03c0.28-1,0.7-1.8,1.26-2.39c0.32-0.34,0.76-0.68,1.32-1
					c1.27-0.75,2.61-1.23,4.03-1.43c1.37-0.21,2.77,0,4.2,0.66c0.73,0.32,1.42,0.78,2.11,1.34c0.7,0.57,1.4,1.24,2.1,2.03
					C339.07,206.76,339.99,208.32,340.86,210.12z"/>
			</g>
			<g>
				<path class="st0" d="M348.55,233.6c0.53-1.42,1.05-2.86,1.56-4.32c-2.43-9.51-6.01-18.72-10.56-27.42
					c-0.15,1.54-0.31,3.05-0.48,4.55c0.37,0.71,0.67,1.46,1.01,2.18l-9.06,4.19c-0.35,1.63-0.7,3.21-1.09,4.78
					c1.9,0.17,3.68,0.75,5.32,1.74c1.68,0.98,3.08,2.44,4.36,4.29c-1.37,0.1-2.72,0.37-4.05,0.82c-1.62,0.54-3.86,1.81-6.73,3.69
					c-0.02,0.9-0.13,1.81-0.22,2.71c2.44-1.32,3.78-2.04,4.04-2.08c0.47-0.24,0.96-0.44,1.46-0.59c2.37-0.72,5.4-0.48,9.18,1
					l0.56-2.81c0.17-0.94,0.39-1.91,0.51-2.85c-0.92-1.39-1.8-2.6-2.64-3.64c-0.21-0.26-0.42-0.51-0.62-0.74
					c-0.21-0.23-0.43-0.45-0.64-0.66c-0.42-0.42-0.84-0.8-1.24-1.13c-1.52-1.19-2.64-2.04-3.41-2.6l5.91-2.51
					C344.64,219.11,346.93,226.28,348.55,233.6z"/>
			</g>
			<g>
				<path class="st0" d="M351.5,260.62c0.8-1.25,1.6-2.52,2.4-3.82l-0.07-2.51c0.09-0.59,0.27-1.02,0.56-1.29
					c0.17-0.05,0.31-0.06,0.43-0.03c0.33-0.06,0.62-0.22,0.87-0.49c0.41-0.68,0.9-1.63,1.48-2.86l-4.17,0.62l-4.01,0.86l0.55-0.63
					c2.52-2.69,3.54-4.8,3.38-6.13c-0.03-0.25-0.15-0.7-0.34-1.33c-0.19-0.58-0.4-1.11-0.63-1.6c-0.25-0.48-0.52-0.92-0.81-1.3
					c-0.57-0.77-1.21-1.36-1.92-1.75c0.31-0.31,0.59-0.74,0.85-1.31c0.02-0.04,0.23-0.58,0.65-1.62c0.27-1.13,0.23-2.37-0.08-3.72
					l-0.39-1.69c-0.13-0.56-0.25-1.13-0.42-1.68l-0.95-3.34c-0.45,1.46-0.91,2.9-1.37,4.31c0.71,2.91,0.9,3.88,0.68,2.87
					c0.2,0.98,0.21,1.86,0.02,2.62c-0.28,0.57-0.52,1-0.76,1.3c-0.58-1-1.35-1.82-2.27-2.46c-1.02-0.73-1.88-1-2.59-0.83
					c-0.73,0.18-1.32,0.66-1.76,1.43c-0.44,0.77-0.54,1.67-0.3,2.7c0.17,0.71,0.44,1.43,0.93,2.13c0.48,0.71,0.98,1.22,1.53,1.54
					c-0.85,1.21-1.13,2.49-0.97,3.91c0.22,1.75,0.8,2.8,1.75,3.17c0.71,0.29,1.39,0.31,2.04,0.03c0.59-0.27,1.11-0.81,1.54-1.63
					c0.21-0.41,0.55-1.22,1-2.45c0.53,0.14,0.91,0.82,1.17,2.03c0.13,0.77-0.21,1.77-1.16,2.99c-0.96,1.22-1.7,1.82-2.22,1.87
					l-11.24,0.75c-0.76,1.19-1.51,2.35-2.27,3.48l18.7-1.02C351.41,256.06,351.43,258.34,351.5,260.62z"/>
			</g>
		</g>
		<g>
			<polygon class="st1" points="129.96,288.71 102.11,274.14 115.13,301.97 121.01,271.83 99.18,292.78 			"/>
		</g>
		<g>
			<polygon class="st1" points="147.05,322.43 116.25,316.19 136.5,339.3 133.76,308.71 118.62,334.91 			"/>
		</g>
		<g>
			<polygon class="st1" points="331.19,288.71 359.04,274.14 346.01,301.97 340.13,271.83 361.96,292.78 			"/>
		</g>
		<g>
			<polygon class="st1" points="314.09,322.43 344.9,316.19 324.64,339.3 327.38,308.71 342.52,334.91 			"/>
		</g>
		<g>
			<path class="st3" d="M249.08,279.73c0.04-0.42,0.11-0.83,0.1-1.25c0-0.76-0.08-1.52-0.07-2.28c0.01-0.63,0.34-0.8,0.83-0.42
				c0.33,0.26,0.63,0.61,0.81,0.99c0.69,1.45,1.33,2.92,2,4.38c0.19,0.41,0.44,0.79,0.68,1.18c0.16,0.26,0.39,0.37,0.65,0.15
				c1.04-0.92,2.11-1.8,3.08-2.79c0.54-0.56,0.43-1.38,0.34-2.13c-0.09-0.79-0.2-1.58-0.29-2.37c-0.1-0.88,0.14-1.65,0.79-2.27
				c0.46-0.44,0.88-0.93,1.36-1.36c1.08-0.95,1.53-2.16,1.51-3.59c-0.01-0.82,0-1.64,0.03-2.45c0.01-0.24,0.08-0.47,0.14-0.87
				c0.43,0.35,0.76,0.6,1.07,0.88c0.8,0.71,0.98,0.69,1.81,0.03c0.46-0.37,0.98-0.67,1.51-0.93c0.32-0.16,0.7-0.09,0.79,0.36
				c0.09,0.49,0.4,0.42,0.72,0.35c0.7-0.15,0.8-0.03,0.91,0.69c0.2,1.23,0.37,2.48,0.74,3.66c0.61,1.95,0.85,3.96,1.03,5.98
				c0.2,2.27,0.36,4.54,0.57,6.8c0.03,0.31,0.15,0.64,0.31,0.9c1.14,1.86,1.82,3.9,2.28,6.01c0.16,0.71,0.02,1.48,0.16,2.2
				c0.41,2.16,0.9,4.3,1.33,6.45c0.14,0.72,0.21,1.46,0.27,2.2c0.04,0.41,0.04,0.79-0.3,1.16c-0.17,0.18-0.14,0.62-0.09,0.92
				c0.57,2.94,0.61,5.93,0.63,8.91c0.01,2.22,0.12,4.44,0.55,6.63c0.17,0.88,0.25,1.78,0.34,2.68c0.02,0.2-0.1,0.44-0.21,0.63
				c-0.24,0.43-0.68,0.52-1.02,0.15c-0.3-0.32-0.56-0.71-0.75-1.11c-0.42-0.88-0.96-1.46-2.03-1.31c-0.57,0.08-0.86-0.22-1-0.84
				c-0.06-0.26-0.08-0.52-0.13-0.79c-0.11-0.6-0.28-0.69-0.84-0.47c-1.98,0.79-3.06,2.25-3.43,4.39c-0.32,1.85-0.05,3.51,0.74,5.18
				c0.88,1.83,1.53,3.75,1.88,5.76c0.02,0.11,0.03,0.22,0.04,0.34c0,0.07-0.03,0.13-0.07,0.33c-0.18-0.23-0.31-0.36-0.39-0.51
				c-0.93-1.58-1.83-3.17-2.77-4.74c-0.63-1.05-1.3-2.08-1.98-3.1c-0.76-1.14-1.21-2.38-1.24-3.77c-0.02-0.98-0.26-1.88-0.96-2.66
				c-0.3-0.34-0.43-0.91-0.46-1.39c-0.04-0.7-0.09-0.93-0.75-0.89c-1.11,0.06-1.18-0.34-1.23-1.29c-0.05-1.06,0-2.13-0.08-3.19
				c-0.03-0.46-0.32-0.89-0.43-1.34c-0.08-0.36-0.15-0.76-0.09-1.11c0.16-0.93,0.25-1.88,0.85-2.68c0.11-0.15,0.12-0.45,0.06-0.65
				c-0.63-2.28-1.27-4.55-1.93-6.81c-0.34-1.14-0.74-2.26-1.11-3.39c-0.8-2.45-2.32-4.4-4.1-6.16c-0.72-0.7-1.56-1.28-2.39-1.86
				c-0.52-0.36-1.12-0.25-1.84-0.13c0.3,0.38,0.56,0.63,0.73,0.93c0.24,0.42,0.5,0.85,0.6,1.31c0.13,0.62-0.23,0.87-0.82,0.66
				c-0.7-0.25-1.99,0.53-2.11,1.27c-0.06,0.37,0.2,0.37,0.41,0.35c0.34-0.04,0.68-0.13,1.04-0.2c-0.14,0.71-0.52,1-1.15,0.87
				c-0.59-0.12-1.1,0.04-1.45,0.51c-0.67,0.91-1.29,0.79-2.08,0.24c-1.14-0.8-2.23-1.65-3.31-2.52c-1.26-1.01-2.49-2.09-3.32-3.51
				c-0.52-0.89-0.82-1.92-1.34-2.8c-0.63-1.07-1.38-2.06-2.14-3.05c-0.16-0.21-0.57-0.22-0.85-0.36c-0.13-0.07-0.33-0.24-0.32-0.33
				c0.12-0.57,0.26-1.14,0.48-1.67c0.06-0.15,0.43-0.24,0.65-0.22c0.32,0.02,0.37-0.1,0.4-0.38c0.06-0.69,0.1-1.39,0.25-2.07
				c0.17-0.78,0.08-1.5-0.2-2.22c-0.44-1.16-0.86-2.34-1.29-3.51c-0.02-0.07-0.07-0.13-0.18-0.32c0.08,0.87,0.17,1.58,0.21,2.3
				c0.07,1.27,0.05,1.27-1.21,1.61c0.34,0.34,0.63,0.64,0.95,0.92c0.98,0.84,0.99,1.01,0.48,2.22c-0.39,0.93-0.82,1.89-0.97,2.87
				c-0.22,1.44,0.65,2.56,1.44,3.65c0.27,0.38,0.59,0.74,0.88,1.11c0.48,0.6,0.72,1.27,0.43,2.03c1.19,0.28,1.56,0.8,1.21,1.69
				c-0.26-0.09-0.52-0.17-0.78-0.26c-0.04,0.04-0.08,0.07-0.13,0.11c0.13,0.34,0.2,0.71,0.39,1.02c0.64,1.07,1.26,2.16,2,3.15
				c1.15,1.53,1.57,3.14,1.17,5.06c-0.42,2.02-0.95,3.94-2.44,5.44c-0.33,0.33-0.71,0.62-1.09,0.88c-0.92,0.61-1.7,1.34-2.21,2.36
				c-0.16,0.33-0.42,0.64-0.7,0.86c-0.36,0.29-0.72,0.11-0.63-0.34c0.15-0.77,0.44-1.51,0.68-2.26c0.04-0.14,0.14-0.26,0.14-0.44
				c-0.37,0.37-0.71,0.76-1.11,1.09c-0.93,0.77-1.89,1.52-2.85,2.27c-0.1,0.08-0.24,0.11-0.36,0.15c-0.66,0.24-0.85,0.15-1.14-0.65
				c-0.24,0.26-0.47,0.46-0.65,0.7c-0.8,1.08-1.57,1.43-2.57,1.13c-1.45-0.43-2.48-1.52-2.55-2.71c-0.04-0.64,0.28-1.07,0.9-1.32
				c-0.89-0.32-1.23-0.16-1.49,0.62c-0.14,0.41-0.45,0.39-0.64,0.15c-0.38-0.47-0.71-1-1.02-1.53c-0.2-0.34-0.33-0.72-0.53-1.06
				c-0.07-0.12-0.28-0.24-0.4-0.22c-0.1,0.02-0.22,0.24-0.23,0.38c-0.01,0.34,0.03,0.68,0.07,1.02c0.04,0.26,0.12,0.52,0.17,0.78
				c0.35,1.83-0.52,2.95-2.35,3.04c-0.41,0.02-0.82,0.06-1.22,0.11c-0.4,0.05-0.52,0.23-0.26,0.61c0.5,0.71,0.41,0.84-0.38,1.23
				c-0.49,0.24-0.95,0.58-1.36,0.95c-0.4,0.36-0.71,0.42-0.92-0.09c-0.28-0.71-0.44-1.47-0.57-2.23c-0.1-0.63-0.05-1.29-0.12-1.93
				c-0.03-0.22-0.25-0.59-0.35-0.58c-0.28,0.03-0.73,0.16-0.79,0.36c-0.15,0.46-0.17,0.99-0.13,1.48c0.06,0.81,0.13,1.59-0.53,2.22
				c-0.54,0.52-0.93,0.52-1.42-0.05c-0.46-0.55-0.88-1.12-1.41-1.8c-0.08,0.73-0.11,1.34-0.21,1.95c-0.08,0.48-0.18,0.97-0.38,1.41
				c-0.26,0.56-0.88,0.72-1.4,0.5c0-0.75,0.03-1.46-0.02-2.18c-0.01-0.25-0.18-0.5-0.32-0.72c-0.17-0.27-0.42-0.61-0.76-0.38
				c-0.23,0.16-0.31,0.55-0.45,0.83c-0.01,0.03,0.02,0.07,0.02,0.11c-0.01,0.27-0.03,0.53-0.04,0.8c-0.32-0.1-0.72-0.11-0.96-0.32
				c-0.69-0.61-0.87-1.48-0.9-2.37c-0.01-0.47,0.03-0.95,0.17-1.46c0.14,0.36,0.27,0.71,0.41,1.07c0.04-0.01,0.08-0.01,0.12-0.02
				c0.01-0.06,0.04-0.13,0.04-0.19c0.07-2.51,0-5.02-0.57-7.47c-0.13-0.56-0.36-1.11-0.63-1.63c-0.54-1.04-0.77-2.12-0.75-3.29
				c0.01-0.55-0.02-1.1-0.07-1.65c-0.02-0.26-0.08-0.56-0.23-0.74c-0.66-0.79-0.56-1.72-0.6-2.65c-0.05-0.92-0.19-1.83-0.33-2.74
				c-0.04-0.29-0.13-0.48,0.24-0.61c0.52-0.18,0.54-0.69,0.52-1.14c-0.01-0.45-0.04-0.91-0.63-1.06c-0.57-0.15-0.75-0.69-0.84-1.18
				c-0.29-1.51-0.26-3.03,0.34-4.47c0.16-0.39,0.46-0.73,0.74-1.05c0.2-0.22,0.48-0.36,0.72-0.53c-0.04-0.1-0.07-0.19-0.11-0.29
				c-0.47-0.17-0.94-0.4-1.43-0.48c-0.78-0.14-1.58-0.21-2.38-0.25c-0.81-0.04-1.39-0.48-1.38-1.31c0.01-0.6,0.19-1.22,0.37-1.8
				c0.17-0.54,0.49-1.02,0.67-1.56c0.24-0.69,0.09-1.02-0.51-1.38c-0.37-0.22-0.77-0.39-1.12-0.63c-0.46-0.31-0.79-0.68-0.92-1.29
				c-0.08-0.35-0.44-0.71-0.77-0.89c-0.45-0.25-0.7-0.59-0.72-1.06c-0.05-1.41,0.07-2.81,0.62-4.13c0.12-0.28,0.4-0.54,0.67-0.68
				c0.75-0.4,1.35-0.96,1.78-1.68c0.32-0.54,0.36-1.1,0.21-1.78c-0.29-1.33-0.31-2.71-0.51-4.06c-0.11-0.76-0.28-1.53-0.58-2.23
				c-0.48-1.1-1.46-1.56-2.6-1.69c-0.87-0.1-1.75-0.15-2.59-0.37c-0.51-0.14-0.96-0.54-1.42-0.86c-0.38-0.27-0.73-0.6-1.11-0.86
				c-0.6-0.41-1.24-0.62-1.94-0.22c-0.14,0.08-0.32,0.11-0.48,0.14c-0.6,0.1-0.8-0.05-0.82-0.67c-0.01-0.63,0.02-1.25,0.05-1.88
				c0.05-1.05-0.17-1.37-1.14-1.64c-1.45-0.41-1.81-1.24-1.08-2.59c0.28-0.51,0.66-0.96,0.97-1.45c0.34-0.54,0.69-1.08,0.94-1.67
				c0.11-0.26,0.04-0.63-0.02-0.94c-0.11-0.55-0.02-0.73,0.53-0.66c0.7,0.09,1.4,0.24,2.07,0.45c0.59,0.19,1.05,0.06,1.47-0.36
				c1.17-1.17,1.72-2.61,1.93-4.25c0.08-0.64,0.33-1.27,0.6-1.87c0.08-0.18,0.49-0.39,0.67-0.33c1.71,0.51,3.47,0.41,5.22,0.47
				c0.97,0.03,1.94-0.01,2.91-0.04c0.81-0.03,0.96-0.24,1.14-1.02c0.08-0.34,0.38-0.62,0.64-1.03c-0.21-0.16-0.53-0.45-0.89-0.69
				c-0.7-0.48-1.42-0.95-1.75-1.78c-0.18-0.45-0.26-0.94-0.36-1.42c-0.13-0.65-0.43-0.98-1.08-1.02c-1.17-0.08-2.35-0.1-3.52-0.21
				c-1.34-0.13-2.88-1.57-3.33-2.87c-0.17-0.49-0.53-0.99-0.93-1.32c-1.05-0.88-2.15-1.68-3.26-2.48c-0.26-0.18-0.62-0.26-0.95-0.29
				c-2.06-0.19-2.5-0.78-2.23-3.14c0.06-0.54,0.5-1.03,0.74-1.55c0.3-0.64,0.69-1.27,0.83-1.95c0.21-1,0.68-1.77,1.46-2.34
				c1.1-0.81,2.11-1.65,2.8-2.89c0.28-0.51,0.9-0.82,1.37-1.23c0.04-0.03,0.11-0.04,0.15-0.07c0.5-0.33,1.17-0.55,1.09-1.35
				c-0.06-0.64-0.84-1.34-1.6-1.38c-0.53-0.02-1.06,0.11-1.59,0.17c-0.12,0.01-0.24,0.02-0.4,0.03c-0.01-0.11-0.04-0.19-0.02-0.25
				c0.31-1.09,0.63-2.18,0.95-3.27c0.03-0.11,0.07-0.23,0.15-0.3c0.17-0.16,0.37-0.28,0.55-0.42c0.13,0.19,0.37,0.39,0.37,0.58
				c-0.05,1.09,0.72,1.58,1.45,2.05c0.69,0.45,1.49,0.74,2.13,1.24c0.8,0.63,1.56,1.34,2.22,2.13c0.62,0.75,0.53,1.24-0.21,2.06
				c0.47-0.06,0.81-0.1,1.16-0.15c1.08-0.15,1.17-0.11,1.7,0.9c0.07,0.13,0.16,0.24,0.25,0.36c0.09-0.04,0.15-0.06,0.18-0.09
				c0.78-0.86,0.78-0.85,1.85-0.41c0.48,0.2,0.97,0.4,1.48,0.49c0.48,0.09,0.66-0.19,0.39-0.6c-0.32-0.48-0.74-0.89-1.1-1.35
				c-0.36-0.47-0.77-0.93-1.03-1.47c-0.29-0.59,0.03-1,0.67-1.02c1.39-0.04,2.79,1.05,3.14,2.43c0.41,1.62,0.93,3.2,1.82,4.62
				c0.21,0.34,0.61,0.57,0.93,0.83c0.38,0.31,0.79,0.58,1.14,0.91c0.71,0.66,1.42,1.13,2.5,0.95c0.56-0.09,1.19,0.22,1.78,0.37
				c0.21,0.06,0.41,0.18,0.61,0.29c1.03,0.55,1.19,0.48,1.18-0.68c0-0.54,0.32-0.82,0.95-0.9c-0.17-0.28-0.28-0.5-0.43-0.7
				c-0.35-0.45-0.44-0.94-0.17-1.43c0.28-0.49,0.59-0.97,0.97-1.37c0.36-0.39,0.67-0.26,0.77,0.27c0.04,0.18-0.02,0.41,0.06,0.56
				c0.08,0.14,0.32,0.34,0.42,0.3c0.48-0.17,0.79,0.07,0.98,0.43c0.32,0.59,0.63,1.21,0.82,1.85c0.31,1.03,0.68,2,1.44,2.79
				c0.31,0.32,0.38,0.65,0,1.03c-0.19,0.19-0.3,0.54-0.31,0.82c-0.03,1.08,0.01,2.16,0.01,3.24c0,1.82,0.03,3.65-0.03,5.47
				c-0.03,0.83-0.25,1.65-0.34,2.47c-0.04,0.37-0.01,0.76,0.04,1.13c0.08,0.63,0.53,1.18,1.09,1.21c1.5,0.09,2.85,0.65,4.2,1.29
				c2.09,0.99,4.33,1.42,6.61,1.46c3.62,0.05,7.24,0.06,10.86,0.01c1.62-0.02,3.23-0.25,4.85-0.35c1.56-0.09,3.08,0.09,4.58,0.57
				c2.34,0.75,4.73,0.75,7.13,0.39c1.69-0.26,3.38-0.55,5.07-0.79c1.7-0.25,3.16,0.41,4.59,1.26c1.25,0.74,2.57,1.35,3.86,2.03
				c0.48,0.25,0.91,0.5,1.05,1.15c0.07,0.34,0.46,0.66,0.78,0.89c0.35,0.25,0.81,0.42,0.82,0.92c0.01,0.52-0.32,0.92-0.77,1.09
				c-0.78,0.29-1.59,0.51-2.39,0.7c-1.15,0.27-1.2,0.45-1.54,1.62c-0.41,1.41-0.98,2.78-1.56,4.13c-0.57,1.32-1.17,2.62-1.32,4.09
				c-0.08,0.78-0.28,0.88-1.06,1.05c-0.65,0.14-1.28,0.38-1.9,0.63c-0.88,0.35-1.25,1.06-1.29,2.01c-0.03,0.64-0.1,1.29-0.25,1.91
				c-0.06,0.26-0.37,0.47-0.57,0.7c-0.2-0.2-0.45-0.37-0.59-0.6c-0.33-0.57-0.96-0.95-1.52-0.85c-0.46,0.08-0.67,0.32-0.51,0.79
				c0.13,0.39,0.15,0.71-0.34,0.83c-0.49,0.12-0.92-0.13-1.05-0.56c-0.06-0.19-0.18-0.35-0.27-0.53c-0.19,0.13-0.46,0.21-0.57,0.39
				c-0.17,0.28-0.27,0.62-0.35,0.95c-0.18,0.78-0.38,1-1.16,1.04c-0.54,0.03-1.08-0.02-1.62-0.03c-0.48-0.01-0.97-0.05-1.45-0.03
				c-0.8,0.04-0.96,0.22-1.03,1.03c-0.03,0.36-0.07,0.71-0.15,1.06c-0.08,0.34-0.31,0.53-0.68,0.55c-1.08,0.04-1.73,0.67-1.96,1.7
				c-0.19,0.87-0.28,1.76-0.37,2.64c-0.07,0.72-0.25,0.94-0.94,1.12c-0.25,0.07-0.6,0.28-0.65,0.49c-0.05,0.22,0.14,0.59,0.34,0.75
				c0.41,0.33,0.62,0.54,0.1,0.99c-0.16,0.14-0.13,0.63-0.04,0.91c0.29,0.9,0.59,1.8,0.98,2.66c1.12,2.5,1.93,5.08,2.34,7.8
				c0.11,0.75,0.3,1.52,0.82,2.12C248.93,279.73,249,279.73,249.08,279.73z M233.88,292.28c-0.05,0-0.1,0.01-0.15,0.01
				c-0.05,0.23-0.14,0.45-0.15,0.68c-0.05,0.7-0.01,1.42-0.12,2.1c-0.15,0.89-0.25,1.85-0.66,2.61c-1.28,2.34-2.96,4.36-4.94,6.13
				c-0.24,0.22-0.62,0.27-0.93,0.41c-0.1,0.05-0.26,0.13-0.27,0.21c-0.07,0.49-0.11,0.98-0.15,1.47c0.07,0.03,0.15,0.05,0.22,0.08
				c0.34-0.41,0.64-0.86,1.03-1.22c0.52-0.47,1.06-0.97,1.67-1.25c0.5-0.23,0.8-0.45,0.9-1.01c0.05-0.26,0.31-0.49,0.5-0.72
				c0.12-0.14,0.3-0.23,0.39-0.39c0.26-0.44,0.46-0.91,0.73-1.34c0.31-0.49,0.58-1.09,1.03-1.37c0.47-0.29,0.71-0.63,0.83-1.11
				c0.37-1.48,0.48-2.99,0.33-4.52C234.09,292.79,233.96,292.54,233.88,292.28z M219.06,267.35c-0.01,0.02-0.03,0.05-0.04,0.07
				c0.88,0.41,1.74,0.83,2.63,1.21c0.34,0.14,0.72,0.23,1.08,0.23c0.18,0,0.35-0.28,0.53-0.43c-0.17-0.18-0.31-0.5-0.51-0.53
				C221.53,267.67,220.3,267.52,219.06,267.35z M224.34,271.3c0.72,0.27,2.45,0.05,2.95-0.37
				C226.45,270.11,224.63,270.33,224.34,271.3z M209.6,303.68c0.04,0.8,0.36,1.14,0.83,0.98c0.78-0.26,1.23-1.4,0.85-2.21
				C210.82,303,210.65,303.94,209.6,303.68z M228.75,273.38c0.51-0.46,0.59-1.67,0.18-2.08c-0.23-0.23-0.45-0.16-0.49,0.12
				C228.34,272.1,228.4,272.76,228.75,273.38z M217.1,297.68c-0.08,0.03-0.16,0.06-0.24,0.09c0.09,0.79,0.15,1.59,0.76,2.18
				c0.08-0.03,0.16-0.06,0.24-0.09C217.61,299.14,217.35,298.41,217.1,297.68z M208.92,298.14c0,0.4,0,0.79,0,1.19
				C209.23,298.94,209.41,298.55,208.92,298.14z"/>
			<path class="st3" d="M240.36,303.68c0.25-0.66,0.39-1.19,0.63-1.66c0.73-1.42,1.05-2.93,1.12-4.53c0.04-0.8,0.33-1.62,0.63-2.37
				c0.2-0.51,0.53-0.48,0.9-0.07c1.26,1.43,1.5,3.33,0.64,5.14c-0.7,1.47-1.82,2.53-3.23,3.28
				C240.9,303.55,240.72,303.57,240.36,303.68z"/>
			<path class="st3" d="M252.94,294.44c-0.19,0.33-0.3,0.79-0.58,0.94c-0.25,0.13-0.73,0.02-1.03-0.15
				c-1.27-0.72-2.07-2.88-1.64-4.28c0.19-0.64,0.64-0.82,1.14-0.46C251.73,291.11,252.83,293.27,252.94,294.44z"/>
			<path class="st3" d="M238.95,302.02c0.61-1.91,0.92-3.82,1.72-5.65C241.61,297.69,240.52,301.28,238.95,302.02z"/>
			<path class="st3" d="M237.9,291.11c0.77-0.21,2.26,0.53,2.51,1.23c0.13,0.37-0.02,0.64-0.36,0.64c-0.57,0-1.99-1.09-2.14-1.66
				C237.89,291.25,237.9,291.17,237.9,291.11z"/>
			<path class="st3" d="M242.11,294.72c-0.22,0.28-0.39,0.68-0.67,0.8c-0.4,0.17-0.88,0.14-1.33,0.17c-0.02,0-0.14-0.36-0.08-0.45
				c0.3-0.4,0.61-0.82,1-1.11C241.5,293.78,242,294.08,242.11,294.72z"/>
			<path class="st3" d="M234.82,304.64c0.04,0.12,0.19,0.33,0.14,0.47c-0.22,0.69-0.63,1.25-1.3,1.55
				c-0.38,0.18-0.75-0.08-0.72-0.48C232.99,305.65,234.13,304.62,234.82,304.64z"/>
			<path class="st3" d="M235.97,305.81c0.05,0.09,0.16,0.21,0.17,0.34c0.03,0.39-0.42,0.96-0.74,0.93c-0.1-0.01-0.25-0.2-0.26-0.32
				C235.1,306.37,235.55,305.81,235.97,305.81z"/>
			<path class="st3" d="M232.7,273.9c0.24,0.32,0.49,0.63,0.71,0.97c0.05,0.08-0.04,0.26-0.06,0.4c-0.11-0.05-0.28-0.06-0.32-0.15
				c-0.2-0.35-0.36-0.72-0.53-1.08C232.56,273.99,232.63,273.95,232.7,273.9z"/>
		</g>
	</g>
	<g>
		<rect x="433.51" y="124.98" class="st4" width="37.76" height="168"/>
		<path class="st4" d="M527.01,208.86c0-36.05,23.4-53.6,53.52-53.6c13.44,0,24.15,2.88,31.87,6.01v-31.98
			c-7.95-2.35-19.56-4.31-33.61-4.31c-50.79,0-91.61,30.77-91.61,86.05c0,46.15,29.87,81,87.88,81c16,0,29.07-2.22,37.34-4.8v-30.78
			c-7.47,2.88-20.16,5.29-31.62,5.29C546.93,261.74,527.01,241.31,527.01,208.86z"/>
		<polygon class="st4" points="628.5,124.98 628.5,156.7 672.74,156.7 672.74,292.03 710.15,292.03 710.15,156.7 755.13,156.7 
			755.13,124.98 		"/>
	</g>
	<g>
		<path class="st4" d="M434.72,319.73c4.48-0.74,10.32-1.15,16.47-1.15c10.24,0,16.88,1.89,22.08,5.92
			c5.6,4.28,9.12,11.1,9.12,20.89c0,10.61-3.76,17.92-8.96,22.45c-5.68,4.85-14.32,7.15-24.87,7.15c-6.32,0-10.8-0.41-13.84-0.82
			V319.73z M446.95,364.95c1.04,0.25,2.72,0.25,4.24,0.25c11.04,0.08,18.24-6.17,18.24-19.4c0.08-11.51-6.48-17.59-16.95-17.59
			c-2.72,0-4.48,0.25-5.52,0.49V364.95z"/>
		<path class="st4" d="M502.61,318.99v55.42h-12.24v-55.42H502.61z"/>
		<path class="st4" d="M525.88,374.4l-17.28-55.42h13.36l6.56,23.43c1.84,6.58,3.52,12.91,4.8,19.81h0.24
			c1.36-6.66,3.04-13.24,4.88-19.57l6.88-23.68h12.96l-18.16,55.42H525.88z"/>
		<path class="st4" d="M576.26,318.99v55.42h-12.24v-55.42H576.26z"/>
		<path class="st4" d="M587.21,361.49c3.28,1.73,8.32,3.45,13.52,3.45c5.6,0,8.56-2.38,8.56-6c0-3.45-2.56-5.43-9.04-7.81
			c-8.96-3.21-14.79-8.3-14.79-16.36c0-9.46,7.68-16.69,20.39-16.69c6.08,0,10.56,1.31,13.76,2.8l-2.72,10.11
			c-2.16-1.07-6-2.63-11.28-2.63c-5.28,0-7.84,2.47-7.84,5.35c0,3.53,3.04,5.1,10,7.81c9.52,3.62,14,8.72,14,16.52
			c0,9.29-6.96,17.18-21.76,17.18c-6.16,0-12.24-1.64-15.28-3.37L587.21,361.49z"/>
		<path class="st4" d="M642.23,318.99v55.42h-12.24v-55.42H642.23z"/>
		<path class="st4" d="M702.13,346.12c0,18.17-10.72,29.19-26.47,29.19c-16,0-25.35-12.41-25.35-28.2
			c0-16.61,10.32-29.02,26.23-29.02C693.09,318.08,702.13,330.83,702.13,346.12z M663.18,346.86c0,10.85,4.96,18.5,13.12,18.5
			c8.24,0,12.96-8.06,12.96-18.83c0-9.95-4.64-18.5-13.04-18.5C667.98,328.03,663.18,336.09,663.18,346.86z"/>
		<path class="st4" d="M710.12,374.4v-55.42h14.24l11.2,20.31c3.2,5.84,6.4,12.74,8.8,18.99h0.24c-0.8-7.32-1.04-14.8-1.04-23.1
			v-16.2h11.2v55.42h-12.8l-11.52-21.38c-3.2-5.92-6.72-13.07-9.36-19.57l-0.24,0.08c0.32,7.32,0.48,15.13,0.48,24.17v16.69H710.12z
			"/>
	</g>
	<g>
		<polygon class="st1" points="102.54,480.2 107.89,480.2 107.89,465.51 123.27,465.51 123.27,460.66 107.89,460.66 107.89,451.58 
			125.41,451.58 125.41,446.73 102.54,446.73 		"/>
		<path class="st1" d="M172.69,469.99c-0.03,1.24-0.29,2.32-0.78,3.19c-1.23,2.15-3.5,3.19-6.92,3.19c-2.21,0-4.06-0.53-5.5-1.56
			c-1.41-1.1-2.1-2.67-2.1-4.81v-23.27h-5.35v23.28c0.03,2.54,0.68,4.71,1.93,6.49c2.27,3.14,5.98,4.72,11.02,4.72
			c3.21,0,5.96-0.7,8.17-2.08c3.24-2.02,4.89-5.1,4.89-9.14v-23.27h-5.35V469.99z"/>
		<polygon class="st1" points="203.83,451.58 214.46,451.58 214.46,480.2 219.78,480.2 219.78,451.58 230.35,451.58 230.35,446.73 
			203.83,446.73 		"/>
		<path class="st1" d="M277.02,469.99c-0.03,1.24-0.29,2.32-0.78,3.19c-1.23,2.15-3.5,3.19-6.92,3.19c-2.21,0-4.06-0.53-5.5-1.56
			c-1.41-1.1-2.1-2.67-2.1-4.81v-23.27h-5.35v23.28c0.03,2.54,0.68,4.71,1.93,6.49c2.27,3.14,5.98,4.72,11.02,4.72
			c3.21,0,5.96-0.7,8.17-2.08c3.24-2.02,4.89-5.1,4.89-9.14v-23.27h-5.35V469.99z"/>
		<path class="st1" d="M337.29,477.2c-0.3-0.49-0.67-1.78-0.75-5.13c-0.03-2.64-0.3-4.5-0.84-5.7c-0.5-1.05-1.44-1.96-2.81-2.72
			c0.32-0.19,0.63-0.38,0.93-0.58c2.28-1.63,3.43-4.02,3.43-7.11c0-1.3-0.17-2.47-0.51-3.5c-1.3-3.8-4.63-5.73-9.91-5.73h-15.49
			v33.47h5.35v-13.89h9.99c0.62,0,1.17,0.05,1.64,0.16c2.06,0.44,3.06,2.07,3.06,4.97l-0.04,2.88c0,2.18,0.33,4.03,0.98,5.52
			l0.16,0.37h6.02v-1.95l-0.26-0.18C337.83,477.78,337.5,477.47,337.29,477.2z M316.69,451.58h9.35c1.98,0,3.41,0.36,4.25,1.08
			c0.99,0.84,1.47,2.11,1.47,3.88c0,0.6-0.06,1.13-0.18,1.61c-0.46,2.23-2.27,3.31-5.53,3.31h-9.35V451.58z"/>
		<polygon class="st1" points="371.18,465.51 388.74,465.51 388.74,460.66 371.18,460.66 371.18,451.58 389.41,451.58 
			389.41,446.73 365.83,446.73 365.83,480.2 390.18,480.2 390.18,475.35 371.18,475.35 		"/>
		<rect x="453.47" y="446.73" class="st1" width="5.37" height="33.47"/>
		<path class="st1" d="M505.4,462.06l-8.08-2.18c-1.16-0.3-2.1-0.64-2.81-1.01c-1.38-0.71-2.05-1.75-2.05-3.17
			c0-0.89,0.23-1.67,0.7-2.36c1.1-1.66,3.03-2.47,5.9-2.47c1.13,0,2.14,0.12,3.02,0.35c2.94,0.77,4.38,2.6,4.4,5.59l0,0.61h5.13
			v-0.61c0-2.05-0.45-3.86-1.33-5.38c-1.97-3.47-5.7-5.24-11.1-5.24c-2.78,0-5.19,0.53-7.16,1.58c-3.27,1.76-4.92,4.63-4.92,8.51
			c0.03,4.21,2.31,6.94,6.78,8.1l8.04,2.12c0.35,0.08,0.67,0.18,1.01,0.31c2.98,0.94,4.43,2.35,4.43,4.32l-0.04,0.5
			c-0.15,1.49-0.81,2.62-1.98,3.47c-1.22,0.83-3.1,1.25-5.59,1.25c-3.24,0-5.58-0.83-6.96-2.48c-1.06-1.27-1.56-2.76-1.52-4.54
			l0.01-0.63h-5.15l0.01,0.62c0.03,2.88,0.71,5.25,2.02,7.03c2.36,3.22,6.17,4.85,11.34,4.85c4.01,0,7.18-0.88,9.46-2.62l0.62-0.51
			c1.91-1.81,2.96-4.06,3.15-6.73v-0.63c0-0.88-0.12-1.72-0.35-2.5C511.49,465.16,509.15,463.08,505.4,462.06z"/>
		<polygon class="st1" points="595.57,460.66 580.21,460.66 580.21,446.73 574.88,446.73 574.88,480.2 580.25,480.2 580.25,465.51 
			595.57,465.51 595.57,480.2 600.92,480.2 600.92,446.73 595.57,446.73 		"/>
		<polygon class="st1" points="635.15,465.51 652.71,465.51 652.71,460.66 635.15,460.66 635.15,451.58 653.38,451.58 
			653.38,446.73 629.8,446.73 629.8,480.2 654.16,480.2 654.16,475.35 635.15,475.35 		"/>
		<path class="st1" d="M708.08,477.2c-0.3-0.49-0.67-1.78-0.75-5.13c-0.03-2.64-0.3-4.5-0.84-5.7c-0.5-1.05-1.44-1.96-2.81-2.72
			c0.32-0.19,0.63-0.38,0.93-0.58c2.28-1.63,3.43-4.02,3.43-7.11c0-1.3-0.17-2.47-0.51-3.5c-1.3-3.8-4.63-5.73-9.91-5.73h-15.49
			v33.47h5.35v-13.89h9.99c0.62,0,1.17,0.05,1.64,0.16c2.06,0.44,3.06,2.07,3.06,4.97l-0.04,2.88c0,2.18,0.33,4.03,0.98,5.52
			l0.16,0.37h6.02v-1.95l-0.26-0.18C708.62,477.78,708.29,477.47,708.08,477.2z M687.48,451.58h9.35c1.98,0,3.41,0.36,4.25,1.08
			c0.99,0.84,1.47,2.11,1.47,3.88c0,0.6-0.06,1.13-0.18,1.61c-0.46,2.23-2.27,3.31-5.53,3.31h-9.35V451.58z"/>
		<polygon class="st1" points="741.97,475.35 741.97,465.51 759.53,465.51 759.53,460.66 741.97,460.66 741.97,451.58 760.2,451.58 
			760.2,446.73 736.62,446.73 736.62,480.2 760.97,480.2 760.97,475.35 		"/>
	</g>
</g>
</svg>
